<?xml version="1.0" encoding="utf-8"?>
<!-- Generator: Adobe Illustrator 26.0.1, SVG Export Plug-In . SVG Version: 6.00 Build 0)  -->
<svg version="1.1" id="Layer_1" xmlns="http://www.w3.org/2000/svg" xmlns:xlink="http://www.w3.org/1999/xlink" x="0px" y="0px"
	 viewBox="0 0 1338.1 508.5" style="enable-background:new 0 0 1338.1 508.5;" xml:space="preserve">
<style type="text/css">
	.st0{fill:#CDD0D8;}
</style>
<g>
	<path class="st0" d="M1052.9,497.6c-31.6,0-62.6,0-93.9,0c0-142,0-283.8,0-425.9c1.5-0.1,2.8-0.2,4.2-0.2c24.4,0,48.8,0,73.2-0.1
		c3.2,0,5.4,1.1,7.4,3.6c43,53.5,86,107,129,160.6c22.6,28.2,45.2,56.3,67.9,84.4c1,1.2,2,2.4,3.6,3.4c0-83.8,0-167.7,0-251.6
		c31.5,0,62.5,0,93.8,0c0,141.9,0,283.9,0,426.1c-0.8,0.1-1.7,0.1-2.5,0.1c-22.5,0-45,0-67.5,0c-2.7,0-4.6-1.1-6.2-3.2
		c-48.6-60.5-97.2-120.9-145.8-181.3c-20.3-25.2-40.6-50.4-60.9-75.6c-0.5-0.7-1.1-1.3-2.2-2.6
		C1052.9,323.2,1052.9,410.3,1052.9,497.6z"/>
	<path class="st0" d="M921.7,284.7c-2.5,81.6-37.2,145.2-106.7,189c-29,18.3-61.1,28.5-95.1,32.9c-64.8,8.3-120.5-11.8-168.8-54.4
		c-26.2-23.1-46.3-50.8-59.6-83.3c-8.6-21.1-13.5-43.1-15.1-65.8c-2.3-32.1,1.1-63.5,11.9-94c12.6-35.5,33.8-65.3,61.4-90.7
		c24.9-22.8,53.4-39.3,85.9-48.6c24.5-7,49.6-9.4,75-8.3c26.7,1.2,52.2,6.8,76.7,17.5c51.8,22.5,111,76.6,128.3,153.1
		C919.1,247.7,921.4,266.7,921.7,284.7z M697.9,414.6c8.1-0.9,16.3-1.2,24.2-2.8c35-6.9,63.1-25,84.1-53.7
		c10.8-14.8,17.7-31.2,20-49.5c1.6-12.7,0.8-25.3-0.6-37.9c-3.1-29.3-14.2-54.9-35-76.1c-31.8-32.4-70.5-43.9-114.9-37.2
		c-26.1,4-48.1,16.3-66.8,34.7c-31.3,31-43.9,68.4-37.9,112c3.7,27.2,15.6,50.5,34.8,70.1C631.2,399.9,661.5,414,697.9,414.6z"/>
	<path class="st0" d="M510.3,498c-1.5,0-2.4,0-3.4,0c-31.9,0-63.7,0-95.6,0c-3,0-4.3-1.4-5.4-4c-25-60.3-49.9-120.5-75-180.7
		c-24.6-59.3-49.2-118.5-73.9-177.8c-0.6-1.4-1.3-2.8-2.3-4.9c-27,65-53.6,129.2-80.5,193.9c1.2,0.1,2.1,0.1,3.1,0.1
		c33.6,0,67.2,0,100.8,0c2.6,0,4.5,0.7,5.6,3.3c11.7,26.8,23.4,53.6,35.1,80.4c0.5,1.3,1,2.5,1.7,4.2c-1.5,0-2.6,0-3.7,0
		c-57.7,0-115.3,0-173,0c-5.8,0-6.3,0.3-8.5,5.8c-10.4,25.2-20.8,50.3-31.3,75.5c-1.7,4.1-1.9,4.3-6.4,4.3c-31.4,0-62.8,0-94.2,0
		c-1,0-2.1,0-3.5,0c0.6-1.7,1-3,1.5-4.2c70.5-163,141-326,211.4-489.1c1.5-3.5,3.7-4.8,7.4-4.8c23.2,0.1,46.4,0.1,69.6,0
		c3.7,0,5.9,1.3,7.4,4.8c49.5,114.6,99,229.2,148.6,343.8c20.8,48,41.5,96,62.3,144C508.8,494.3,509.4,495.9,510.3,498z"/>
</g>
</svg>
