<?xml version="1.0" encoding="utf-8"?>
<!-- Generator: Adobe Illustrator 26.0.1, SVG Export Plug-In . SVG Version: 6.00 Build 0)  -->
<svg version="1.1" id="Layer_1" xmlns="http://www.w3.org/2000/svg" xmlns:xlink="http://www.w3.org/1999/xlink" x="0px" y="0px"
	 viewBox="0 0 1917.4 485.8" style="enable-background:new 0 0 1917.4 485.8;" xml:space="preserve">
<style type="text/css">
	.st0{fill:#CDD0D8;}
	.st1{fill:#0C3B5D;}
	.st2{fill:#FFFFFF;}
</style>
<g>
	<g>
		<circle class="st0" cx="237.7" cy="306.2" r="157.3"/>
		<g>
			<g>
				<g>
					<path class="st0" d="M498.5,267v-83.7h53.4v12.6h-39.3v24.8h36.7v12.4h-36.7V267H498.5z"/>
					<path class="st0" d="M620.6,183.3v12.6h-40.8v22.1h36.9v12.4h-36.9v24h40.8V267H566v-83.7H620.6z"/>
					<path class="st0" d="M636.1,183.3h28.2c24.7,0,40.6,16.4,40.6,41.9S689,267,664.3,267h-28.2V183.3z M663.7,254.3
						c17.6,0,27-11.3,27-29.2c0-18-9.4-29.3-27-29.3h-13.5v58.5H663.7z"/>
					<path class="st0" d="M773.6,183.3v12.6h-40.8v22.1h36.9v12.4h-36.9v24h40.8V267h-54.7v-83.7H773.6z"/>
					<path class="st0" d="M805.5,233.1V267h-14.2v-83.7h32.3c17.3,0,28.5,8.7,28.5,25.1c0,14-8.2,22.1-21.4,24.1L855,267h-16.1
						l-23.3-33.9C815.6,233.1,805.5,233.1,805.5,233.1z M805.5,221.2h17.9c9.4,0,14.7-5.1,14.7-12.8c0-7.8-5.3-12.8-14.7-12.8h-17.9
						V221.2z"/>
					<path class="st0" d="M908.8,183.3L941,267h-14.5l-8.6-23.2h-32l-8.6,23.2H863l32.1-83.7L908.8,183.3L908.8,183.3z M890.4,231.6
						h22.9l-11.5-30.9L890.4,231.6z"/>
					<path class="st0" d="M951.6,183.3h14.2v71h40.2V267h-54.4V183.3z"/>
					<path class="st0" d="M1069.4,233.1V267h-14.2v-83.7h32.3c17.3,0,28.5,8.7,28.5,25.1c0,14-8.2,22.1-21.4,24.1l24.3,34.5h-16.1
						l-23.3-33.9C1079.5,233.1,1069.4,233.1,1069.4,233.1z M1069.4,221.2h17.9c9.4,0,14.7-5.1,14.7-12.8c0-7.8-5.3-12.8-14.7-12.8
						h-17.9V221.2z"/>
					<path class="st0" d="M1187,183.3v12.6h-40.8v22.1h36.9v12.4h-36.9v24h40.8V267h-54.7v-83.7H1187z"/>
					<path class="st0" d="M1201.4,246.1c7.6,6.2,16.8,9.7,26.6,9.7c9.6,0,16.2-3.4,16.2-10.9c0-6.6-4.2-9.1-11.7-12l-12.1-4.4
						c-11.2-4.1-19.6-10.1-19.6-23.8c0-14.7,12.8-22.8,28.2-22.8c9.4,0,18,2.5,24.7,6.8v14.6c-7-5.3-14.6-9-24.4-9
						c-8.5,0-14.7,3.3-14.7,10.1c0,6.2,4,8.6,10.9,11l13.5,4.9c13.1,4.8,19.1,12.1,19.1,24.2c0,15.3-13,23.7-30,23.7
						c-11.2,0-20.7-3.3-26.6-7.4V246.1z"/>
					<path class="st0" d="M1329.3,183.3v12.6h-40.8v22.1h36.9v12.4h-36.9v24h40.8V267h-54.7v-83.7H1329.3z"/>
					<path class="st0" d="M1361.2,233.1V267h-14.2v-83.7h32.3c17.3,0,28.5,8.7,28.5,25.1c0,14-8.2,22.1-21.4,24.1l24.3,34.5h-16.1
						l-23.3-33.9C1371.4,233.1,1361.2,233.1,1361.2,233.1z M1361.2,221.2h17.9c9.4,0,14.7-5.1,14.7-12.8c0-7.8-5.3-12.8-14.7-12.8
						h-17.9V221.2z"/>
					<path class="st0" d="M1446.6,267l-31.6-83.7h14.9l23.7,65.3l23.7-65.3h14.5l-31.6,83.7H1446.6z"/>
					<path class="st0" d="M1558.3,183.3v12.6h-40.8v22.1h36.9v12.4h-36.9v24h40.8V267h-54.7v-83.7H1558.3z"/>
					<path class="st0" d="M1668.9,243c0,15.7-10.9,24-28.3,24h-32v-83.7h29.3c17.4,0,28.3,7.8,28.3,22.8c0,9-4.8,15.5-10.9,17.7
						C1663.2,226.4,1668.9,234.2,1668.9,243z M1637.7,218.5c9.7,0,14.9-3.7,14.9-11.6c0-7.9-5.2-11.3-14.9-11.3h-15.4v22.9H1637.7z
						 M1622.3,254.7h18c9.6,0,14.7-4.8,14.7-12.3c0-7.6-5.2-12.3-14.7-12.3h-18V254.7z"/>
					<path class="st0" d="M1719.9,183.3L1752,267h-14.4l-8.6-23.2h-32l-8.6,23.2h-14.3l32.1-83.7H1719.9z M1701.5,231.6h22.9
						l-11.5-30.9L1701.5,231.6z"/>
					<path class="st0" d="M1830,267h-10.9l-42.8-60.9V267h-13.6v-83.7h13.4l40.4,58.1v-58.1h13.6L1830,267L1830,267z"/>
					<path class="st0" d="M1865.1,219.7l33.5-36.4h17.6l-37.8,40.1l39,43.6h-18l-34.3-38.3V267h-14.2v-83.7h14.2L1865.1,219.7
						L1865.1,219.7z"/>
					<path class="st0" d="M521.3,395.4c-16.7,0-28.5-13.5-28.5-31.9c0-18.5,11.8-31.9,28.5-31.9c16.7,0,28.6,13.4,28.6,31.9
						C549.9,381.9,538,395.4,521.3,395.4z M521.3,340.9c-10.9,0-17.9,9.5-17.9,22.6c0,13.1,7.1,22.6,17.9,22.6
						c10.9,0,18.1-9.5,18.1-22.6C539.4,350.4,532.2,340.9,521.3,340.9z"/>
					<path class="st0" d="M560.8,394.4v-61.8h39.5v9.3h-29v18.3h27.1v9.2h-27.1v25.1H560.8z"/>
					<path class="st0" d="M686,376.5l-26-40.6v58.6H646v-83.7h13.2l27.1,43.6l27-43.6H726v83.7h-13.9v-58.6l-25.6,40.6L686,376.5
						L686,376.5z"/>
					<path class="st0" d="M761.1,394.4h-14.2v-83.7h14.2V394.4z"/>
					<path class="st0" d="M849.2,394.4h-10.9l-42.8-60.9v60.9h-13.6v-83.7h13.4l40.4,58.1v-58.1h13.6V394.4z"/>
					<path class="st0" d="M937.4,394.4h-10.9l-42.8-60.9v60.9h-13.6v-83.7h13.4l40.4,58.1v-58.1h13.6V394.4z"/>
					<path class="st0" d="M1013,310.7v12.6h-40.8v22.1h36.9v12.4h-36.9v24h40.8v12.7h-54.7v-83.7H1013z"/>
					<path class="st0" d="M1070,310.7l32.1,83.7h-14.5l-8.6-23.2h-32l-8.6,23.2h-14.3l32.1-83.7H1070z M1051.5,359h22.9L1063,328
						L1051.5,359z"/>
					<path class="st0" d="M1126.9,363.2v31.2h-14.2v-83.7h32.3c17.3,0,28.6,9,28.6,26.3c0,17-11.3,26.2-28.6,26.2L1126.9,363.2
						L1126.9,363.2z M1144.8,323h-17.9v27.9h17.9c9.8,0,14.9-5.9,14.9-13.9C1159.7,328.7,1154.6,323,1144.8,323z"/>
					<path class="st0" d="M1221.1,395.8c-22.6,0-38.6-18.3-38.6-43.2c0-25.1,15.9-43.2,38.6-43.2s38.7,18.1,38.7,43.2
						C1259.8,377.5,1243.7,395.8,1221.1,395.8z M1221.1,322c-14.7,0-24.3,12.8-24.3,30.5s9.6,30.5,24.3,30.5s24.4-12.8,24.4-30.5
						S1235.9,322,1221.1,322z"/>
					<path class="st0" d="M1273.2,310.7h14.2v71h40.2v12.7h-54.4V310.7z"/>
					<path class="st0" d="M1358.5,394.4h-14.2v-83.7h14.2V394.4z"/>
					<path class="st0" d="M1376.4,373.6c7.6,6.2,16.8,9.7,26.6,9.7c9.6,0,16.2-3.4,16.2-10.9c0-6.6-4.2-9.1-11.7-12l-12.1-4.4
						c-11.2-4.1-19.6-10.1-19.6-23.8c0-14.7,12.8-22.8,28.2-22.8c9.4,0,18,2.5,24.7,6.8v14.6c-7-5.3-14.6-9-24.4-9
						c-8.5,0-14.7,3.3-14.7,10.1c0,6.2,4,8.6,10.9,11l13.5,4.9c13.1,4.8,19.1,12.1,19.1,24.2c0,15.3-13,23.7-30,23.7
						c-11.2,0-20.7-3.3-26.6-7.4V373.6z"/>
				</g>
			</g>
			<path class="st0" d="M76.9,403.6c1.2,0,2.1,0.7,2.3,0.8c0.3,0.2,0.5,0.4,0.7,0.7c1.1,1.4,1.1,3.4-0.1,4.8
				c-2.4,2.8-5.4,7.5-6.3,13.9c-0.3,1.9-0.3,3.9-0.1,5.8c2.9-2.4,5.6-5,8.2-7.7c3.6-3.7,6.9-7.7,9.9-12c0.8-1.1,2.1-1.6,3.3-1.6
				c1.3,0.1,2.5,0.8,3.1,2c1,2.5,2.2,5.2,3.7,8.1c1.2,2.3,2.5,4.3,3.7,6.1c2.9-5.3,5.8-10.5,8.7-15.9c0.1-0.1,1-1.1,2.5-1.2
				c1.6,0,2.5,1,2.6,1.2c1.5,1.6,3.2,3.3,5.3,5.1c1.8,1.5,3.6,2.8,5.2,3.8c1.4-3.2,2.8-6.4,4.2-9.7c0.5-0.9,1.2-1.6,2.2-1.9
				c1-0.3,2-0.2,2.9,0.3c1.4,1,3.1,2,5.1,2.9c2.2,1,4.1,1.8,5.9,2.3c1.7-4,3.4-8,5.1-12c0.8-1.8,2.9-2.7,4.7-2.1
				c1.5,0.8,3.3,1.7,5.3,2.5c2.4,1,4.6,1.6,6.6,2.1c1-3.2,1.9-6.4,2.8-9.6c0.4-1.5,1.8-2.6,3.3-2.7c10.5-0.8,20.5-4.5,30.4-7.8
				c25.9-8.5,43.4-23.5,60.3-38c10.1-8.7,19.8-18.2,28.9-28.2c1.2-1.4,3.4-1.6,4.9-0.6c13.1,8.8,26.4,17.6,39.7,26.3
				c4.4,2.9,15.5,8.7,15.5,8.7c1.2,0.7,5.5,2.9,8.7,3.5c5.1,1,9.4,0.1,12.2-0.8c2.1-0.6,4.9-1.7,7.1-4.3c0.3-0.3,0.4-0.9,0.6-1.5
				l-22.8-12.6c-1.7-1-2.4-3.1-1.5-4.9c0.9-1.8,2.7-1.7,4.5-1l0.6,0.3c0.2,0.1,0.4,0.2,0.6,0.3l21.8,10.8c3,0.4,10.2,1,15.7-1.8
				c2.5-1.2,4.5-2.8,6-4.3c-9.2-4.2-19.5-8.2-24.4-10.5c-3.7-1.7-6.2-2.9-7.9-3.8c-0.1,0-2.3-0.8-3-2.7c-0.1-0.3-0.5-1.5,0.1-2.7
				c0.5-1,1.4-1.3,1.9-1.5c1.7-0.6,4.3,0.8,5.5,1.3c3.7,1.4,11.4,4.7,20.8,8.8c2.9-0.9,7-3.1,10.6-6.4c1.6-1.5,4.2-4.1,5.4-6
				c-1.2-0.4-29-8.5-30.3-10.4c-0.5-0.7-0.9-3-0.4-3.8c0.6-1,2.7-0.9,2.8-0.8c1.2,0.3,2.5,0.6,3.7,1c3.6,0.9,9,1.8,12.5,2.6
				c2.3-0.8,8.1-3.6,12-7.1c1.2-1.1,2.3-2.3,3.4-3.6l-94.1-14.2c-1.4-0.2-2.5-1.2-3-2.5c-0.5-1.3-0.1-2.8,0.8-3.8
				c8.8-9.4,15.9-20,21.2-31.7c5.8-12.7,9.4-26.3,10.5-40.4c0.1-1.1,0.7-2.2,1.6-2.8c5.8-4,16-12.4,20.3-17.8
				c4-5,8.6-14.9,11.2-20.7l-14.9,10.3c-1.5,0.8-3.4,0.5-4.6-0.7c-1.2-1.3-1.4-3.2-0.4-4.7c7.5-11.4,13.3-29.3,16-42.4
				c0.7-3.2,1.1-6.4,1.5-9.7l-21.9,34.7c-1.2,1.6-3.4,2-5.1,1c-1.7-1.1-2.2-3.2-1.3-5c8.8-16.4,16.4-42.8,16.9-60.4
				c0.1-2.1,0.1-4.2,0-6.4l-22.2,44.9c-0.9,1.7-3,2.5-4.8,1.7s-2.7-2.7-2.1-4.6c3.4-11,4.7-22.6,5.5-34c0.7-9.1,2.9-28.4-1.7-45.1
				c-0.4-1.3-0.7-2.6-1.2-3.8c-6.1,19.8-13.8,45.1-22.2,63.7c-21.7,48.5-46.2,82.7-64.1,107.6c-16.6,23.2-42.3,54-42.5,54.3
				c-0.7,0.8-1.6,1.3-2.6,1.4c-49.2,3.3-58.5,6.3-60.3,7.3c-1.5,2.4-3.3,3.9-4.6,4.7c-1.7,1.1-3.2,1.6-4.5,2l-0.9,0.3
				c-2.8,1-5.4,2.5-6.6,3.6c-1.1,0.9-2.8,3.2-3.1,8.1l0.1,1c1.6-1.1,3.6-2.1,5.7-2.8c3.8-1.2,7.3-1.2,8.6-1.1c0.2,0,1.8,0.1,3.4,0.5
				c6.6,1.4,13.2,7.5,17.2,11.2l0.3,0.3c3.5,3.2,7.2,6.5,10.9,9.8c0.8,0.7,1.3,1.8,1.3,2.9c0,1.1-0.5,2.2-1.4,2.9
				c-12.9,10.5-26.4,20.8-40.1,30.6c-27.8,19.7-41.7,29.7-57,35.8c-25.4,10.3-58.1,13.3-75.6,15.3c1.7,0.5,4.1,2.5,5.8,2.8
				c8.8,1.9,21.5,3,30.5,1.9c1.7-0.2,3.3,0.7,3.9,2.3c0.7,1.6,0.2,3.4-1.2,4.4c-2.2,1.8-5.3,4.8-7.3,9.6c-0.6,1.5-1.1,3.1-1.4,4.7
				c4.2-0.9,8.5-2.1,12.6-3.4c6.2-2,12.1-4.5,17.9-7.2C75.4,403.9,76,403.6,76.9,403.6z"/>
			<g>
				<g>
					<path class="st1" d="M71.7,438.8c-0.4,0-0.8-0.1-1.2-0.2c-1.2-0.4-2.1-1.3-2.4-2.5c-1.5-4.8,0.2-11.6,0.8-16.5
						c0.4-2.6,1-4.8,1.8-7c-2.7,1.1-4.7,1.9-7.4,2.7c-6,1.9-15,5.1-21.2,6.2c-1.1,0.2-2.2-0.1-3.1-0.8c-0.8-0.7-1.4-1.8-1.4-2.9
						c0-4.2,2.6-8.8,4.2-12.7c0.8-2,1.8-3.7,2.8-5.3c-6.6,0.1-13.1-0.6-19.6-2c-7.3-1.6-16.2-3.7-23-7c-1.5-0.8-2.3-2.4-2-4.1
						c0.3-1.6,1.7-2.9,3.4-3c2.2-0.2,5.5-0.5,9.4-0.9c16.3-1.8,46.7-5.2,74.3-16.3c14.5-5.9,28.2-15.6,55.4-35
						c12.4-8.8,24.5-18,36.2-27.5c-2.7-2.3-5.3-4.7-7.8-7l-0.3-0.3c-3.1-2.9-9-8.3-13.6-9.3c-1.1-0.3-2.3-0.3-2.3-0.3
						c-0.5,0-3.1-0.1-5.9,0.7c-4,1.3-6.7,4.1-7.9,5.6c-1,1.2-2.5,1.7-4,1.2c-1.5-0.4-2.5-1.6-2.7-3.2l-1.1-8.6c0-0.2,0-0.4,0-0.6
						c0.3-7.9,3.7-12,5.6-13.7c1.7-1.5,5.1-3.7,9.2-5.1l1.1-0.3c1-0.3,1.7-0.5,2.5-1.1c0.7-0.4,1.7-1.3,2.5-2.6
						c1.7-2.8,4-6.4,64.5-10.5c4.9-6,26.7-32.3,41.2-52.5c17.7-24.7,41.9-58.4,63.3-106.3c9.7-21.6,17.9-44.3,24.6-67.4
						c0.4-1.5,1.8-2.6,3.4-2.7s3.1,0.8,3.7,2.2c2.2,4.8,4,9.9,5.5,15c5,17.9,4,32.5,3.3,42.1c-0.2,2.9-0.5,5.8-0.9,8.7L375.2,65
						c0.8-1.4,2.4-2.2,4-1.9c1.6,0.3,2.9,1.6,3.1,3.2c0.9,6.7,1.3,13.4,1.1,20.1c-0.3,9.2-1.6,18.3-4,27.3l9.1-12.3
						c1-1.3,2.6-1.8,4.2-1.4c1.5,0.5,2.6,1.9,2.6,3.6c0.1,7.9-0.6,15.8-2.2,23.4c-1.9,9.6-5.1,18.8-9.5,27.6l7.6-4.2
						c1.4-0.7,3-0.6,4.2,0.4c1.2,1,1.7,2.5,1.3,4c-3,10.4-7.9,19.8-14.6,28.2c-4.5,5.5-9.6,10.5-15.4,14.7c-1.3,14.3-5,28.1-11,41.1
						c-4.7,10.3-10.7,19.8-17.9,28.4l91.4,14c1.2,0.2,2.3,1,2.8,2.1c0.5,1.1,0.5,2.5-0.1,3.5c-2.2,3.8-4.9,7.2-8.1,10.1
						c-2.3,2.1-5,3.8-7.6,5.2c2.3,0.8,4.8,1.7,7.6,2.7c1,0.4,1.8,1.1,2.2,2.1s0.4,2.1,0,3c-1.9,4.2-4.6,7.9-8,11.1
						c-2.1,1.9-4.4,3.6-6.9,4.9c1.4,0.7,2.9,1.3,4.4,2c1,0.5,1.8,1.4,2.1,2.4s0.1,2.2-0.5,3.1c-2.1,3-5.9,7.3-11.8,10.3
						c-5,2.5-9.8,3.3-13.7,3.3c0,0.1,0,0.1,0,0.2c-0.3,1.6-0.7,3.9-2.4,5.9c-3.4,4.1-7.7,5.9-10.7,6.7c-3.4,1.1-9.1,2.2-15.7,1
						c-5.2-1-11-4.4-11.2-4.5c-0.1-0.1-9-5.9-13.5-8.8c-12.5-8.2-24.8-16.4-37.1-24.5c-8.6,9.4-17.8,18.3-27.4,26.5
						c-17.5,15-35.6,30.5-62.9,39.4c-9.7,3.2-19.7,5.3-29.9,6.3l-3.9,10.7c-0.3,1-1,1.8-1.9,2.3c-0.9,0.5-2,0.5-3,0.2l-12.9-5.2
						l-4,13.6c-0.4,1-1.2,1.7-2.2,2.1c-1,0.4-2.1,0.3-3-0.2l-11.2-7.9l-4.7,12.8c-0.2,0.7-0.8,1.9-1.8,2.1c-0.2,0-0.5,0.1-0.9-0.1
						c-4-1.4-12.9-12.5-12.9-12.5l-8.8,18.9c-0.7,1.2-2.1,3.1-3.5,3.1l0,0c-1.4,0-2.6-2.2-3.3-3.4L95.6,415
						c-2.2,2.8-5.3,6.9-7.8,9.4c-4.3,4.4-9,9.9-14,13.6C73.3,438.6,72.5,438.8,71.7,438.8z M76.9,403.6c1.2,0,2.1,0.7,2.3,0.8
						c0.3,0.2,0.5,0.4,0.7,0.7c1.1,1.4,1.1,3.4-0.1,4.8c-2.4,2.8-5.4,7.5-6.3,13.9c-0.3,1.9-0.3,3.9-0.1,5.8c2.9-2.4,5.6-5,8.2-7.7
						c3.6-3.7,6.9-7.7,9.9-12c0.8-1.1,2.1-1.6,3.3-1.6c1.3,0.1,2.5,0.8,3.1,2c1,2.5,2.2,5.2,3.7,8.1c1.2,2.3,2.5,4.3,3.7,6.1
						c2.9-5.3,5.8-10.5,8.7-15.9c0.1-0.1,1-1.1,2.5-1.2c1.6,0,2.5,1,2.6,1.2c1.5,1.6,3.2,3.3,5.3,5.1c1.8,1.5,3.6,2.8,5.2,3.8
						c1.4-3.2,2.8-6.4,4.2-9.7c0.5-0.9,1.2-1.6,2.2-1.9c1-0.3,2-0.2,2.9,0.3c1.4,1,3.1,2,5.1,2.9c2.2,1,4.1,1.8,5.9,2.3
						c1.7-4,3.4-8,5.1-12c0.8-1.8,2.9-2.7,4.7-2.1c1.5,0.8,3.3,1.7,5.3,2.5c2.4,1,4.6,1.6,6.6,2.1c1-3.2,1.9-6.4,2.8-9.6
						c0.4-1.5,1.8-2.6,3.3-2.7c10.5-0.8,20.5-4.5,30.4-7.8c25.9-8.5,43.4-23.5,60.3-38c10.1-8.7,19.8-18.2,28.9-28.2
						c1.2-1.4,3.4-1.6,4.9-0.6c13.1,8.8,26.4,17.6,39.7,26.3c4.4,2.9,15.5,8.7,15.5,8.7c1.2,0.7,5.5,2.9,8.7,3.5
						c5.1,1,9.4,0.1,12.2-0.8c2.1-0.6,4.9-1.7,7.1-4.3c0.3-0.3,0.4-0.9,0.6-1.5l-22.8-12.6c-1.7-1-2.4-3.1-1.5-4.9
						c0.9-1.8,2.7-1.7,4.5-1l0.6,0.3c0.2,0.1,0.4,0.2,0.6,0.3l21.8,10.8c3,0.4,10.2,1,15.7-1.8c2.5-1.2,4.5-2.8,6-4.3
						c-9.2-4.2-19.5-8.2-24.4-10.5c-3.7-1.7-6.2-2.9-7.9-3.8c-0.1,0-2.3-0.8-3-2.7c-0.1-0.3-0.5-1.5,0.1-2.7c0.5-1,1.4-1.3,1.9-1.5
						c1.7-0.6,4.3,0.8,5.5,1.3c3.7,1.4,11.4,4.7,20.8,8.8c2.9-0.9,7-3.1,10.6-6.4c1.6-1.5,4.2-4.1,5.4-6c-1.2-0.4-29-8.5-30.3-10.4
						c-0.5-0.7-0.9-3-0.4-3.8c0.6-1,2.7-0.9,2.8-0.8c1.2,0.3,2.5,0.6,3.7,1c3.6,0.9,9,1.8,12.5,2.6c2.3-0.8,8.1-3.6,12-7.1
						c1.2-1.1,2.3-2.3,3.4-3.6l-94.1-14.2c-1.4-0.2-2.5-1.2-3-2.5c-0.5-1.3-0.1-2.8,0.8-3.8c8.8-9.4,15.9-20,21.2-31.7
						c5.8-12.7,9.4-26.3,10.5-40.4c0.1-1.1,0.7-2.2,1.6-2.8c5.8-4,16-12.4,20.3-17.8c4-5,8.6-14.9,11.2-20.7l-14.9,10.3
						c-1.5,0.8-3.4,0.5-4.6-0.7c-1.2-1.3-1.4-3.2-0.4-4.7c7.5-11.4,13.3-29.3,16-42.4c0.7-3.2,1.1-6.4,1.5-9.7l-21.9,34.7
						c-1.2,1.6-3.4,2-5.1,1c-1.7-1.1-2.2-3.2-1.3-5c8.8-16.4,16.4-42.8,16.9-60.4c0.1-2.1,0.1-4.2,0-6.4l-22.2,44.9
						c-0.9,1.7-3,2.5-4.8,1.7s-2.7-2.7-2.1-4.6c3.4-11,4.7-22.6,5.5-34c0.7-9.1,2.9-28.4-1.7-45.1c-0.4-1.3-0.7-2.6-1.2-3.8
						c-6.1,19.8-13.8,45.1-22.2,63.7c-21.7,48.5-46.2,82.7-64.1,107.6c-16.6,23.2-42.3,54-42.5,54.3c-0.7,0.8-1.6,1.3-2.6,1.4
						c-49.2,3.3-58.5,6.3-60.3,7.3c-1.5,2.4-3.3,3.9-4.6,4.7c-1.7,1.1-3.2,1.6-4.5,2l-0.9,0.3c-2.8,1-5.4,2.5-6.6,3.6
						c-1.1,0.9-2.8,3.2-3.1,8.1l0.1,1c1.6-1.1,3.6-2.1,5.7-2.8c3.8-1.2,7.3-1.2,8.6-1.1c0.2,0,1.8,0.1,3.4,0.5
						c6.6,1.4,13.2,7.5,17.2,11.2l0.3,0.3c3.5,3.2,7.2,6.5,10.9,9.8c0.8,0.7,1.3,1.8,1.3,2.9c0,1.1-0.5,2.2-1.4,2.9
						c-12.9,10.5-26.4,20.8-40.1,30.6c-27.8,19.7-41.7,29.7-57,35.8c-25.4,10.3-58.1,13.3-75.6,15.3c1.7,0.5,4.1,2.5,5.8,2.8
						c8.8,1.9,21.5,3,30.5,1.9c1.7-0.2,3.3,0.7,3.9,2.3c0.7,1.6,0.2,3.4-1.2,4.4c-2.2,1.8-5.3,4.8-7.3,9.6c-0.6,1.5-1.1,3.1-1.4,4.7
						c4.2-0.9,8.5-2.1,12.6-3.4c6.2-2,12.1-4.5,17.9-7.2C75.4,403.9,76,403.6,76.9,403.6z M393.3,298.1L393.3,298.1L393.3,298.1z
						 M160.2,264L160.2,264L160.2,264z"/>
					<path class="st1" d="M213.6,314.6l-4.4-4.1l0,0c0.3-1-2.3-4.9-5.8-7.9l-6.7-5.9l30,2.3c-3-5-10.5-7.4-10.6-7.5l-13.3-4.1
						l32.9-3.9c-3.1-4.5-11.9-7.4-15.3-8.2l-13-3l31.3-6.7c-1.2-1.5-3.1-3.4-6-5.5l3.4-4.9c8.2,5.8,9.9,11,10.1,11.5l0.9,3.1
						l-15.3,3.3c5.1,2.6,10.3,6.6,10.9,12.6l0.3,2.9l-16.2,1.9c3.4,2.6,6.6,6.3,7,11.5l0.3,3.5l-21.6-1.7c1.4,1.9,2.5,4.1,2.5,6.2
						C215.3,311.8,214.8,313.4,213.6,314.6z"/>
					<path class="st1" d="M347,328.9c-0.7,0-1.4-0.3-1.8-0.9c-0.8-1-0.7-2.5,0.3-3.3c6.2-5,10.8-10.6,13.7-16.6
						c1-2.2,1.9-4.4,2.4-6.6c1.2-4.5,1-7.5,1-7.5c-0.1-1.3,0.8-2.5,2.1-2.6c1.3-0.1,2.5,0.8,2.6,2.1c0,0.1,0.4,3.8-1.1,9.2
						c-0.7,2.5-1.6,5-2.7,7.4c-3.2,6.7-8.3,12.8-15,18.2C348.1,328.7,347.6,328.9,347,328.9z"/>
					<path class="st1" d="M114.8,378.2c-0.9,0-1.8-0.5-2.2-1.4c-0.5-1.2-0.1-2.6,1.1-3.1c2.6-1.2,6.1-3.2,10.3-5.9
						c1.1-0.7,2.6-0.4,3.3,0.7c0.7,1.1,0.4,2.6-0.7,3.3c-4.3,2.8-7.9,4.9-10.8,6.2C115.5,378.2,115.1,378.2,114.8,378.2z"/>
					<path class="st1" d="M134.7,365.9c-0.7,0-1.5-0.4-1.9-1c-0.8-1.1-0.5-2.6,0.6-3.3c22.1-15.4,50.2-38.4,50.5-38.7
						c1-0.8,2.5-0.7,3.3,0.3c0.8,1,0.7,2.5-0.3,3.4c-0.3,0.2-28.5,23.4-50.7,38.9C135.6,365.7,135.1,365.9,134.7,365.9z"/>
					<path class="st1" d="M170,270.9c0.1,1.7,1.5,3,3.2,3c1.7,0,3-1.5,3-3.2c-0.1-1.7-1.5-3-3.2-3C171.3,267.8,170,269.2,170,270.9"
						/>
					<path class="st1" d="M167.9,270l-2.4-0.1l-1.2-0.1c0,0,2.8-3.9,8.7-4.1c5.9-0.2,16.9,2.7,16.9,2.7"/>
					<path class="st1" d="M345,191.7c-0.4,0-0.8-0.1-1.2-0.3c-1.3-0.7-1.8-2.3-1.1-3.6c3.4-6.3,5.2-13.5,5.2-20.8
						c0-9.2-2.8-18.1-8.2-25.6c-0.8-1.2-0.5-2.8,0.6-3.7c1.2-0.8,2.8-0.5,3.7,0.6c6,8.4,9.1,18.3,9.1,28.6c0,8.1-2,16.1-5.8,23.3
						C346.8,191.2,345.9,191.7,345,191.7z"/>
					<path class="st1" d="M321.2,144.6c-0.4,0-0.9-0.1-1.4-0.4c-1.2-0.7-1.6-2.3-0.9-3.6c3.8-6.4,6.7-11.9,8.5-16.4
						c0.5-1.4,2.1-2,3.4-1.5c1.4,0.5,2,2.1,1.5,3.4c-1.9,4.7-4.8,10.4-8.8,17.1C322.9,144.2,322.1,144.6,321.2,144.6z"/>
					<path class="st1" d="M247.9,246.4c-0.6,0-1.2-0.2-1.7-0.6c-1.1-1-1.2-2.6-0.3-3.7c0.4-0.5,42-48.8,66.4-85.9
						c0.8-1.2,2.4-1.5,3.6-0.7c1.2,0.8,1.5,2.4,0.7,3.6c-24.6,37.3-66.4,85.9-66.8,86.4C249.4,246.1,248.6,246.4,247.9,246.4z"/>
					<path class="st1" d="M276.4,321.1c-2.7,0-5.3,0-8,0c-16-0.2-31.1-1.1-46.3-2.8c-10.2-1.1-17.3-2.3-25.6-5.4
						c-5.7-2.1-11.2-4.8-16.3-8l3.1-5.1c4.8,3,10,5.5,15.3,7.5c7.8,2.9,14.3,4,24.2,5.1c15,1.7,29.9,2.6,45.7,2.8
						c10.1,0.1,20.4,0,30.8-0.4l0.2,5.9C291.7,321,284,321.1,276.4,321.1z"/>
				</g>
				<g>
					<g>
						<path class="st2" d="M93,364.3c-7.8-18.3-12-38.5-12-59.6c0-85.1,69.5-154.3,155-154.3c17.6,0,34.9,2.9,51.3,8.7
							c0.6-2.2,1.6-4.2,3-5.9c-17.4-6.2-35.6-9.3-54.3-9.3c-89.1,0-161.6,72.2-161.6,160.9c0,22,4.5,43.1,12.6,62.2
							C88.7,365.7,90.7,364.8,93,364.3z"/>
						<path class="st2" d="M391.7,347c-1.4,5.3-4.9,9.9-10.6,11.9C359,417.3,302.3,459,236,459c-38.7,0-73.9-14.3-101.1-37.7
							c-0.8,0.1-1.5,0.1-2.4,0.1c-1.1,0-2.2-0.1-3.1-0.3c-1.1,0.4-2.1,0.8-3.4,1c28.9,26.8,67.4,43.4,109.9,43.4
							c74.4,0,137.2-50.3,155.8-118.6C391.8,347,391.7,347,391.7,347z"/>
						<path class="st2" d="M388.1,275.8c0.3,0,0.7,0,1,0c2.1,0,4.1,0.3,5.8,0.8c-4.7-25.6-15.5-49.5-31.1-69.7c0,0.4,0,0.8,0,1.2
							c0.1,2.8-0.3,5.6-1.2,8.2C375.1,234,384,254.2,388.1,275.8z"/>
					</g>
					<polygon class="st2" points="244.9,160.1 248.9,168.8 258.4,170.4 251.4,177 252.8,186.5 244.4,181.8 235.8,186.1 237.6,176.6 
						230.9,169.8 240.4,168.6 					"/>
					<polygon class="st2" points="154.9,184.8 163,189.9 171.8,186.1 169.5,195.4 175.8,202.6 166.2,203.3 161.3,211.5 157.8,202.6 
						148.4,200.5 155.8,194.3 					"/>
					<polygon class="st2" points="103.8,277.4 104,267.8 96.1,262.2 105.2,259.4 108.1,250.2 113.7,258 123.2,257.9 117.5,265.6 
						120.6,274.7 111.5,271.6 					"/>
					<polygon class="st2" points="177.8,435.8 180.8,426.7 174.9,419 184.5,419 189.9,411.1 192.9,420.2 202.1,422.9 194.4,428.6 
						194.6,438.2 186.8,432.6 					"/>
					<polygon class="st2" points="285.3,436.5 275.9,434.9 269.2,441.8 267.8,432.3 259.2,428 267.8,423.8 269.2,414.2 275.9,421.1 
						285.4,419.6 280.9,428 					"/>
					<polygon class="st2" points="357.4,383.4 348,385.4 344.4,394.3 339.6,386 330,385.2 336.4,378.1 334.2,368.8 342.9,372.6 
						351.1,367.6 350.1,377.2 					"/>
					<path class="st2" d="M120.1,246.5c-0.2,0-0.4-0.1-0.6-0.2c-1.1-0.6-1.5-1.9-0.9-3c6.7-12.6,15.3-23.9,25.6-33.8
						c0.9-0.8,2.3-0.8,3.1,0.1c0.8,0.9,0.8,2.3-0.1,3.1c-10,9.6-18.3,20.6-24.8,32.7C121.9,246.2,121,246.7,120.1,246.5z"/>
					<path class="st2" d="M237.3,436.4c-10.5,0-20.9-1.2-31-3.6c-1.2-0.3-1.9-1.5-1.6-2.6c0.3-1.2,1.5-1.9,2.6-1.6
						c10.5,2.5,21.3,3.6,32.1,3.5c3.6-0.1,7.2-0.3,10.7-0.6c1.2-0.1,2.3,0.8,2.4,2c0.1,1.2-0.8,2.3-2,2.4c-3.7,0.4-7.4,0.6-11.1,0.6
						C238.7,436.4,238,436.4,237.3,436.4z"/>
					<path class="st2" d="M296.3,422.5c-0.8,0-1.6-0.4-2-1.2c-0.5-1.1-0.1-2.4,1-2.9c12.2-6.1,23.3-14,33-23.6
						c0.9-0.8,2.3-0.8,3.1,0s0.8,2.3,0,3.1c-10.1,9.9-21.6,18.1-34.1,24.3C296.9,422.4,296.6,422.5,296.3,422.5z"/>
					<path class="st2" d="M178.4,189.9c-0.7-0.1-1.2-0.5-1.6-1.2c-0.5-1.1-0.1-2.4,1-2.9c13-6.4,26.8-10.5,41.1-12.4
						c1.2-0.1,2.3,0.7,2.5,1.9c0.1,1.2-0.7,2.3-1.9,2.5c-13.8,1.8-27.2,5.9-39.8,12C179.3,189.9,178.9,190,178.4,189.9z"/>
				</g>
			</g>
		</g>
	</g>
</g>
</svg>
