<?xml version="1.0" encoding="utf-8"?>
<!-- Generator: Adobe Illustrator 26.0.1, SVG Export Plug-In . SVG Version: 6.00 Build 0)  -->
<svg version="1.1" id="Layer_1" xmlns="http://www.w3.org/2000/svg" xmlns:xlink="http://www.w3.org/1999/xlink" x="0px" y="0px"
	 viewBox="0 0 1917.4 485.8" style="enable-background:new 0 0 1917.4 485.8;" xml:space="preserve">
<style type="text/css">
	.st0{fill:#CDD0D8;}
</style>
<g>
	<g>
		<polygon class="st0" points="0,477.7 0,294.7 96.2,171.8 96.7,229.6 76.7,249.5 96.7,249.5 96.7,380.5 		"/>
		<path class="st0" d="M141.3,483.1V250.6h18.1l-19.8-19.8v-31.2L236.6,76v63.8l-23,23h24v223.3
			C237.6,386.1,140.3,483.1,141.3,483.1z"/>
		<polygon class="st0" points="279.4,485.8 279.4,163.5 298,163.5 279,144.5 279,124 376.7,0 376.7,390 		"/>
	</g>
	<g>
		<path class="st0" d="M1130.4,409c-51.2-2.3-93.8-23.8-125.3-66.6c-24.1-32.7-35-69.8-31.9-109.8c5.2-66.7,38-115.8,99.7-143.8
			c19-8.6,39.5-12.9,60.2-12.1c56.8,2,101.3,27,132.2,74.9c15.3,23.7,23.8,49.9,25.7,78.3c3.3,48.5-10.9,90.9-43.4,126.9
			C1216.7,390.9,1177.8,407.5,1130.4,409z M1288.5,256.1c0.3-53.7-16.2-86.9-45.9-112.7c-54.9-47.7-131.8-54.7-194.8-18.5
			c-44.1,25.4-70.6,63.4-72,115.2c-1.3,48.4,21,86.6,60.5,113.1c56,37.6,116,40.6,175.8,9.8C1259.9,338.2,1286.9,298.1,1288.5,256.1
			z M1905.7,263.4c-17.8,19.3-39.6,22.8-57.5,8.6c-5.9-4.7-10.6-12.4-13-19.7c-5.8-17.3-4.2-34.2,7.4-49.4
			c13-17.1,47.2-19.7,60.3,0.6c0.4,0.7,1.1,1.2,3,3.3c0-4.5-0.7-7.6,0.2-10.2c0.9-2.6,3-6.6,4.9-6.8c3.8-0.4,6.5,2.2,6.4,7
			c-0.2,27.9,0.1,55.8-0.2,83.7c-0.1,5.9-1.7,12.1-3.8,17.7c-5.1,13.6-16.1,19.4-29.9,20.2c-12.7,0.7-25.3,0.4-36.8-6.2
			c-2.4-1.4-5.3-2.7-6.9-4.8c-1.3-1.7-1-4.7-1.4-7.1c2.2-0.1,4.6-0.9,6.4-0.2c7.3,2.6,14.3,6.6,21.7,8.4c8.7,2.1,17.7,2.1,26.2-2
			c7.7-3.7,12.1-10.3,13-18.4C1906.4,280.4,1905.7,272.6,1905.7,263.4z M1907.3,234.3c-2.1-7-3.2-14.4-6.4-20.8
			c-8.5-17.2-34.1-20.6-47.5-6.9c-10,10.2-10.4,22.7-9.3,35.9c1.8,21.9,23.3,35,43.3,26.1C1902.1,262.1,1905.7,249.3,1907.3,234.3z
			 M1646.7,207c0-5.2,0-8.6,0-12c0-13.1,0-26.2,0-39.2c0-3.9,0.9-7.3,5.5-7.2c4,0.1,5.1,3.1,5.1,6.9c-0.1,40.6-0.1,81.1,0,121.7
			c0,4-1.2,6.6-5.2,6.7c-4,0.1-5.6-2.6-5.4-6.5c0.2-3,0-5.9,0-10.1c-3.9,4.1-6.6,7.9-10.1,10.4c-18.7,13.6-46.2,7.3-56.6-13.4
			c-9.2-18.4-9-37.2,0.3-55.7c11.9-23.6,49.6-26.4,63.5-4.6C1644.2,204.5,1644.7,204.9,1646.7,207z M1584.1,237.8
			c1.4,5.8,2.4,13.1,4.8,20c3.9,11,12.6,16.4,23.9,17.3c11.8,0.9,21.9-2.7,28.2-13.6c6.9-12,6.7-24.9,4.3-38
			c-2.7-14.9-13-24.2-27.5-25.2c-14.7-1-26.5,7.2-30.8,21.9C1585.6,225.3,1585.3,230.8,1584.1,237.8z M1536.6,269
			c-15.7,17-30.9,20-47.8,10.4c-8.9-5.1-13.6-15-12.8-25.1c0.9-11.3,7.1-17.7,17.6-19.6c10.9-1.9,21.9-2.7,32.9-3.8
			c3.2-0.3,6.4,0,10.1,0c0-6.4,0.7-12.1-0.2-17.6c-1.6-10.4-12.6-17.3-24.6-14.7c-8.8,1.9-17,6-25.6,8.8c-2.3,0.8-5,0.6-7.6,0.8
			c0.6-2.7,0.2-6.3,1.8-8.1c10.2-11.4,43.7-14.4,55.8-5.4c10.3,7.6,11.5,19,11.8,30.4c0.4,16.8,0.1,33.6,0.1,50.3
			c0,4.3-0.5,8.5-5.6,8.5c-4.7,0-5.3-4.3-5.7-8.1C1536.8,273.9,1536.8,272,1536.6,269z M1536.4,237.3c-12.9,1.4-25.5,2-37.7,4.4
			c-11.4,2.3-15.2,14.3-8.7,24.1c7,10.7,24.4,12.7,35.5,4.3C1535.8,262.3,1538.1,251.6,1536.4,237.3z M759.4,248
			c-0.3-5.8-0.1-10.6-0.8-15.2c-2.3-13.4-11.4-18.8-24.8-16.9c-9.4,1.3-18.2,6.2-27.4,9.3c-1.9,0.6-4.2,0.1-6.3,0
			c0.2-2.4-0.5-5.6,0.8-7c10-10.6,45.7-19,60.2-3.3c6,6.5,8.3,14.3,8.4,22.6c0.3,18.8,0.1,37.5,0.1,56.3c0,4.2-0.6,7.6-5.7,7.5
			c-5.3-0.1-4.6-4.2-4.6-7.6c0-2.3,0-4.6,0-8.6c-3.8,4.2-6.2,7.5-9.3,10c-13.5,11.3-37.3,8.3-48-5.8c-10.3-13.6-5.2-32,11.1-36.9
			c8.8-2.6,18.3-3.4,27.5-4.3C746.5,247.5,752.4,248,759.4,248z M758.7,254.5c-13.1,1.4-25.5,2.4-37.9,4.2
			c-6.8,1-11.3,5.3-12.2,12.6c-0.9,6.9,1.6,12.4,6.9,16.6c10.8,8.5,28.6,5.6,37.2-5.9C758.4,274.3,759.7,265.8,758.7,254.5z
			 M605.2,255.5c-2.9,24.6,17.4,42,41.8,36.1c6.4-1.5,12.3-5.3,18.5-7.7c2.1-0.8,4.5-0.6,6.8-0.8c-0.5,2.6-0.2,6.7-1.7,7.7
			c-6.2,3.8-12.7,8.1-19.7,9.5c-23.5,4.6-46.8-1.1-55.1-27.6c-6.8-21.6-1.8-48.5,17.5-60.1c14.4-8.7,29.8-9.5,44.4-0.3
			c14.2,8.9,17.2,23.3,16.6,38.8c-0.2,4.8-3.9,4.4-7.2,4.4c-18.5,0-37.1,0-55.6,0C609.4,255.5,607.3,255.5,605.2,255.5z
			 M664.5,247.4c1.3-18.6-10.7-32.3-27.9-32.5c-17.6-0.1-31.8,14.5-30.9,32.5C625.3,247.4,644.9,247.4,664.5,247.4z M875.8,212
			c-0.3-1.8-2.5-4.8-3.8-4.7c-2,0.1-4.2,2-5.7,3.7c-0.8,0.9-0.6,2.9-0.6,4.4c0,26.2,0,52.3,0,78.5c0,4,0.3,7.7,5.6,7.6
			c5.3-0.1,5.6-3.8,5.6-7.8c0-15.3,0-30.5,0-45.8c0-18.8,9.9-30.7,28.5-32.3c12.6-1.1,24.2,3.9,25.4,20.5c0.3,4.8,0.5,9.6,0.5,14.3
			c0.1,14.6,0,29.2,0,43.8c0,3.6,0.2,7.2,5.3,7.2c4.9,0,5.3-3.7,5.6-7.2c0.1-1.3,0-2.6,0-3.9c0-14.6,0.2-29.2-0.1-43.8
			c-0.2-6.7-1-13.4-2.4-20c-1.8-9-7.7-14.9-16.4-17.9c-17.5-6.1-32.4-1.5-47.5,15.7C876,219.1,876.4,215.5,875.8,212z M1740.7,194.3
			c-0.3-1.7-2.1-4-3.6-4.3c-1.6-0.3-4.3,0.9-5.2,2.4c-1.1,1.8-1.2,4.5-1.3,6.8c-0.1,23.5-0.1,47.1,0,70.6c0,3.3-0.5,6.7,0.4,9.7
			c0.6,1.9,3.4,4.3,5.3,4.3c1.8,0,4-2.5,5.2-4.5c0.8-1.3,0.2-3.4,0.2-5.1c0.2-16.8-0.8-33.7,0.7-50.3c2.2-22.9,27-30.3,42.7-22.7
			c8.6,4.1,10.7,12.2,10.8,20.8c0.2,18.5,0.1,37.1,0,55.6c0,3.9,1.6,6.8,5.5,6.3c1.9-0.3,4.7-3.3,4.8-5.2
			c0.3-20.7,0.7-41.4-0.3-62.1c-0.3-6.2-3.7-13-7.6-18.1c-10.3-13.4-40.3-12.5-51.9,2.3c-1.3,1.6-2.7,3.1-5.5,6.2
			C1740.9,201.5,1741.2,197.8,1740.7,194.3z M1355.1,158.8c12,0,24,0.2,36-0.2c1.9-0.1,3.7-2.5,5.5-3.9c-1.8-1.7-3.6-3.5-5.6-5
			c-0.5-0.4-1.7-0.1-2.6-0.1c-31.2,0-62.3,0-93.5,0c-1.1,0-2.5-0.4-3.2,0.1c-1.7,1.3-3,3.1-4.5,4.6c1.6,1.5,3.1,4,4.8,4.2
			c5.6,0.5,11.3,0.2,17,0.2c9.1,0,18.1,0,27.6,0c0,3.3,0,5.7,0,8.1c0,35.5,0,71,0,106.6c0,2-0.6,4.4,0.3,5.8c1.3,2,3.6,4.3,5.7,4.6
			c1.3,0.2,3.4-3,4.5-5c0.7-1.1,0.1-3,0.1-4.5c0-35.7,0-71.5,0-107.2c0-2.5,0-5.1,0-8.3C1350.5,158.8,1352.8,158.8,1355.1,158.8z
			 M510.3,286.1c0-37.3,0-74.6,0-111.9c0-4,0.2-8.6-5.4-8.6c-5,0-6.1,3.7-6.1,8.2c0.1,39.7,0.1,79.4,0,119.1c0,4.7,1.4,7.3,6.7,7.3
			c23.3-0.1,46.7,0,70-0.2c1.8,0,3.6-2.4,5.4-3.7c-1.8-1.7-3.5-4.6-5.5-4.9c-5.1-0.7-10.4-0.2-15.7-0.2c-16.3,0-32.6,0-49.6,0
			C510.3,288.7,510.3,287.4,510.3,286.1z M1424.5,198.3c0.1-4,0.6-8.8-5-8.8c-5.1,0.1-5.4,4.7-5.5,8.8c0,0.7,0,1.3,0,2
			c0,24.6,0,49.2,0,73.9c0,2.1-0.2,4.6,0.8,6.4c0.8,1.6,3,3.4,4.7,3.4c1.7,0,4.1-1.6,5-3.1c1-1.7,0.8-4.2,0.8-6.3
			c0.1-16.1-0.2-32.2,0.2-48.4c0.3-14.6,12.2-26.2,26.8-26.9c2.6-0.1,5.3-0.2,7.6-1.3c1.5-0.7,3.4-3.2,3.1-4.6
			c-0.3-1.5-2.9-3.8-4.3-3.7c-12.1,0.8-23.9,2.7-31,14.4c-0.5,0.8-1.4,1.4-3.2,3C1424.5,203.3,1424.4,200.8,1424.5,198.3z
			 M811.6,214.5c0.2-4-0.1-7.8-5.3-7.7c-4.7,0.1-5.1,3.6-5.1,7.4c0.1,26.6,0.1,53.1,0,79.7c0,3.9-0.1,7.6,5.5,7.6
			c5.4,0,4.9-3.7,4.9-7.3c0-15.5-0.1-30.9,0-46.4c0.1-16.2,8.6-27.3,23.5-30.9c3.3-0.8,7.1-0.1,10.3-1.1c2-0.7,3.3-3.4,4.9-5.2
			c-1.9-1.4-3.8-4-5.7-3.9c-9,0.2-17.8,1.8-24.7,8.3c-2.6,2.5-4.9,5.2-8.4,8.9C811.5,219.9,811.4,217.2,811.6,214.5z M1688.6,277.1
			c0,3.7,0.7,6.8,4.9,7c4.6,0.2,5.6-2.9,5.6-6.9c-0.1-26.8-0.1-53.5,0-80.3c0-3.9-0.8-7.3-5.2-7.3c-4.4,0-5.4,3.3-5.4,7.3
			c0.1,13.1,0.1,26.1,0.1,39.2C1688.6,249.7,1688.7,263.4,1688.6,277.1z M1701.7,159.4c0.2-5.3-2.9-7.5-7.4-8.1
			c-4.5-0.6-8.4,3.3-8.3,7.9c0.1,4.7,2.1,7.9,7.6,7.4C1699.9,166.8,1701.5,165.1,1701.7,159.4z"/>
		<path class="st0" d="M1030.8,307.4V179.1h81.5v27.7h-48v21.9h38.8V254h-39.6v53.4H1030.8z M1123,179.9l31.9,60.3l-34.6,66.5h33.8
			l21.1-40l21.9,40.7h36.1l-36.5-66.5l33-60.3h-34.2l-17.7,35.4l-20.4-37.7L1123,179.9z"/>
	</g>
</g>
</svg>
