<?xml version="1.0" encoding="utf-8"?>
<!-- Generator: Adobe Illustrator 26.0.1, SVG Export Plug-In . SVG Version: 6.00 Build 0)  -->
<svg version="1.1" id="Layer_1" xmlns="http://www.w3.org/2000/svg" xmlns:xlink="http://www.w3.org/1999/xlink" x="0px" y="0px"
	 viewBox="0 0 500.9 209.8" style="enable-background:new 0 0 500.9 209.8;" xml:space="preserve">
<style type="text/css">
	.st0{fill:#CDD0D8;}
</style>
<g>
	<path class="st0" d="M307.4,81c-0.1-5.2-3.3-8.3-8.5-8.3H7.4c-2,0-3.6,0.8-4.9,2.1C0.6,76.8,0,79.2,0,81.8c0,39.6,0,79.2,0,118.8
		c0,0.4,0,0.8,0,1.2c0.2,4.7,3.5,8,7.8,8c97.3,0,194.6,0,291.9,0c2.8,0,4.8-1.2,6.3-3.5c1.2-1.8,1.4-3.8,1.4-5.8c0-38,0-76,0-114
		C307.4,84.6,307.4,82.8,307.4,81z M68.5,101.8v90.3c0,1.7,0,1.7-1.7,1.7c-4.6,0-9.1,0-13.7,0c-1.1,0-1.3-0.3-1.3-1.3
		c0-20.4,0-40.8,0-61.2v-1.4c-0.1,0-0.3,0-0.4,0c-0.1,0.3-0.2,0.7-0.3,1c-2.7,19.5-5.5,39-8.2,58.6c-0.2,1.1-0.3,2.3-0.5,3.4
		c-0.1,0.7-0.3,1-1.1,1c-2.4,0-4.8,0-7.2,0c-0.8,0-1-0.3-1.1-1c-2.6-18.4-5.3-36.9-8-55.3c-0.3-2.2-0.6-4.3-1-6.5
		c-0.1-0.4-0.2-0.7-0.3-1c-0.2,0-0.3,0-0.4,0v1.5c0,20.2,0,40.5,0,60.7c0,1.7,0,1.7-1.7,1.7c-3.7,0-7.4,0-11.2,0
		c-1.1,0-1.4-0.3-1.4-1.4c0-27,0-54,0-81V88.9c0.5,0,0.9-0.1,1.3-0.1c5.9,0,11.8,0,17.8,0c0.9,0,1.3,0.2,1.4,1.2
		c1,7.9,2,15.9,3,23.8c1.2,9.8,2.5,19.6,3.7,29.4c0.4,3.4,0.9,6.8,1.3,10.1c0.1,0.6,0.2,1.2,0.3,1.8c0.1,0,0.2,0,0.3,0
		c0.1-0.2,0.3-0.5,0.3-0.7c1.3-8.2,2.6-16.4,3.8-24.7c2.1-13.3,4.2-26.6,6.2-39.9c0.1-0.8,0.4-1,1.1-1c5.9,0,11.8,0,17.7,0
		c0.8,0,1.1,0.3,1.1,1.1C68.5,93.9,68.5,97.8,68.5,101.8z M101.3,193.6c-0.5-4.9-0.9-9.7-1.4-14.6H88.3c-0.1,1.3-0.3,2.6-0.4,3.9
		c-0.3,3.3-0.6,6.6-1,9.9c0,0.3-0.5,0.9-0.8,0.9c-4.4,0-8.9,0-13.3,0c-0.1,0-0.2-0.1-0.4-0.2c4.5-34.9,9.1-69.7,13.7-104.6
		c0.5,0,0.9-0.1,1.2-0.1c5.5,0,10.9,0,16.3,0c0.9,0,1.2,0.2,1.3,1.2c2.3,17.7,4.8,35.4,7.1,53.1c2,15.2,4,30.3,6.1,45.5
		c0.2,1.6,0.4,3.2,0.7,5H101.3z M159.7,179.4c-1.6,9.6-7.6,14.9-17.2,15.8c-3.5,0.3-7,0.2-10.3-0.8c-5.4-1.7-8.7-5.4-10.4-10.6
		c-1.5-4.5-1.8-9.3-1.6-14c0.1-3.8,0.5-7.5,0.8-11.2c0-0.6,0.1-1,0.8-1c3.9,0,7.8,0,11.8,0c0,0,0.1,0,0.1,0c0,0,0,0,0,0
		c-0.2,4.6-0.6,9.1-0.5,13.5c0,2.6,0.4,5.3,1,7.8c0.6,2.4,2.6,3.5,5,3.1c1.6-0.2,2.8-1,3.2-2.6c0.4-1.7,0.7-3.4,0.9-5.2
		c1.1-11.5-2.8-21.4-10.3-30c-1.5-1.8-2.9-3.6-4.3-5.5c-6.8-9-9.1-19.3-8.4-30.4c0.2-3.4,0.6-6.7,1.8-9.9c2.4-6.4,7-10.1,13.8-11.2
		c3.5-0.5,6.9-0.5,10.4,0.2c5.8,1.2,9.8,4.6,11.6,10.3c0.9,2.9,1.6,5.9,1.6,8.9c0.1,5.6-0.3,11.2-0.5,16.9c0,0.6-0.1,1-0.9,1
		c-3.9,0-7.8,0-11.8,0c-0.1,0-0.2-0.1-0.4-0.1c0.2-2.1,0.5-4.1,0.5-6.2c0-4.5-0.2-8.9-0.3-13.4c0-0.6-0.2-1.2-0.4-1.7
		c-0.8-2.3-2-3.2-4.2-3.1c-2,0.1-3.2,1.1-3.6,3.5c-1.1,7-0.8,13.8,2.7,20.2c1.6,3,3.6,5.9,5.6,8.6c4.8,6.4,9,13.2,11.7,20.9
		C160.6,161.8,161.2,170.6,159.7,179.4z M207.5,102.4h-14.5v89.7c0,1.6,0,1.6-1.5,1.6h-14.3c-1.6,0-1.6,0-1.6-1.6v-89.7h-14.2V88.8
		H206c1.6,0,1.6,0,1.6,1.5C207.5,94.3,207.5,98.3,207.5,102.4z M248,192.6c0,0.7-0.1,1.2-1,1.2c-11.5,0-23,0-34.5,0
		c-0.2,0-0.4,0-0.7-0.1V88.9c0.4,0,0.8-0.1,1.3-0.1c11.1,0,22.3,0,33.4,0c1.1,0,1.4,0.4,1.4,1.4c-0.1,3.6-0.1,7.2,0,10.8
		c0,1.2-0.4,1.5-1.5,1.4c-5.2-0.1-10.5,0-15.7,0h-1.5V132h15.4v13.9h-15.4v34.2h1.4c5.4,0,10.7,0,16.1,0c0.9,0,1.3,0.2,1.3,1.2
		C248,185,248,188.8,248,192.6z M297.4,117c-0.2,4.2-0.5,8.3-1.2,12.4c-1.2,6.6-4.9,11.4-11.2,13.9c-0.2,0.1-0.3,0.2-0.7,0.4
		c0.4,0.2,0.6,0.3,0.8,0.3c5.8,1.6,9,5.6,9.9,11.3c0.6,4.2,0.8,8.4,0.9,12.7c0.2,5.6,0.1,11.3,0.3,16.9c0.1,2.9,0.6,5.8,1,8.8
		c-0.3,0-0.6,0.1-1,0.1c-4.9,0-9.8,0-14.8,0c-0.9,0-1.5-0.3-1.6-1.2c-0.3-2.7-0.8-5.4-0.9-8.1c-0.3-7.5-0.3-15-0.7-22.5
		c-0.1-2.5-0.6-4.9-1.1-7.3c-0.8-3.2-1.8-3.9-5-3.9h-1.8v42.9c-0.5,0-0.8,0.1-1.2,0.1c-5,0-10,0-15,0c-0.9,0-1.2-0.2-1.2-1.2
		c0-34.2,0-68.3,0-102.5c0-0.9,0.2-1.2,1.2-1.2c7.1,0,14.2-0.1,21.4,0.1c2.8,0.1,5.8,0.5,8.5,1.3c6.3,1.8,9.8,6.5,11.7,12.5
		C297.2,107.3,297.6,112.2,297.4,117z"/>
	<path class="st0" d="M500.7,192.2c-4.1-20.1-8.3-40.2-12.3-60.2c-0.2-0.8-0.1-1.8,0.1-2.6c3.9-13,7.9-26,11.9-39
		c0.1-0.4,0.3-0.9,0.4-1.5c-0.5,0-0.9,0-1.3,0c-4.4,0-8.9,0-13.3,0c-1,0-1.4,0.3-1.6,1.3c-3.5,14.3-7.1,28.5-10.7,42.8
		c-0.1,0.4-0.5,0.8-0.7,1.2c-0.1-0.5-0.3-0.9-0.3-1.4c0-14.1,0-28.2,0-42.4c0-0.5,0-0.9,0-1.4c-5.8,0-11.4,0-17.1,0
		c0,34.9,0,69.6,0,104.5c5.7,0,11.3,0,17.1,0c0-0.6,0-1,0-1.5c0-11.6,0-23.1,0-34.7c0-2,0.3-3.8,1-5.6c0.7-1.6,1.3-3.3,2-5.3
		c0.2,0.8,0.3,1.1,0.4,1.5c2.4,14.8,4.8,29.6,7.2,44.4c0.2,1,0.5,1.3,1.5,1.3c4.9,0,9.8,0,14.8,0c0.4,0,0.8,0,1.2-0.1
		C500.8,193,500.7,192.6,500.7,192.2z"/>
	<path class="st0" d="M403,148.8c0-9.3,0.1-18.6-0.1-27.8c-0.2-8.1-5.1-14.1-13-16.1c-6.2-1.6-12.4-1.5-18.5,0.1
		c-5.2,1.4-9.3,4.4-11.6,9.5c-1.2,2.7-1.5,5.5-1.5,8.4v51.6c0,0.6,0,1.3,0.1,1.9c0.4,7.5,4.5,13.2,11.7,15.5c7,2.3,14,2.4,21,0.2
		c5.4-1.6,9.3-5.1,10.9-10.5c0.8-2.5,1-5.2,1-7.8C403.2,165.5,403.1,157.2,403,148.8L403,148.8z M386,177.4c0,4.4-2.9,6.5-7.1,5.2
		c-1.9-0.6-3-1.8-3.2-3.8c-0.1-0.6-0.1-1.3-0.1-1.9c0-9.4,0-18.9,0-28.3v-27.8c0-0.3,0-0.6,0-1c0-2,0.4-3.7,2.3-4.7c2-1,4-1,5.9,0.2
		c1.4,0.8,2,2.2,2.1,3.7c0.1,0.6,0.1,1.3,0.1,1.9c0,18.5,0,37,0,55.6C386,176.8,386,177.1,386,177.4z"/>
	<path class="st0" d="M453.2,129.3c0-2.9,0.1-5.8-0.1-8.6c-0.4-7.9-5.2-13.7-12.9-15.7c-6.2-1.6-12.4-1.6-18.5,0
		c-5.2,1.4-9.3,4.3-11.6,9.2c-1.4,2.9-1.6,6-1.6,9.1c0,16.9,0,33.8,0,50.8c0,0.8,0,1.5,0,2.3c0.4,7.4,4,12.6,10.9,15.3
		c7.4,2.8,15,2.8,22.5,0.3c5-1.6,8.6-5,10.2-10c0.8-2.5,1.1-5.2,1.1-7.8c0.1-8.4,0.1-16.9,0.1-25.3
		C453.2,142.3,453.2,135.8,453.2,129.3z M436.1,176.3c0,0.4,0,0.7,0,1.1c0.1,5.2-3.7,6-6.9,5.3c-1.9-0.4-3.1-1.7-3.4-3.7
		c-0.1-0.5-0.1-1.1-0.1-1.7c0-19.1,0-38.1,0-57.2c0-3,1-4.6,3.3-5.3c3.9-1.2,7.1,1.2,7.1,5.4c0,9.6,0,19.1,0,28.7
		C436.1,158,436.1,167.1,436.1,176.3z"/>
	<path class="st0" d="M341.7,124.5c4.4,0,8.6,0,12.9,0c0.1-0.6,0.2-1.1,0.3-1.7c0.2-4,0.5-7.9,0.6-11.9c0.1-3.6-0.1-7.3-1.1-10.8
		c-1.7-6.2-5.3-10.6-11.8-12.2c-4.3-1-8.6-1.1-13-0.3c-7.4,1.4-12.3,5.6-14.6,12.8c-1.1,3.3-1.3,6.7-1.3,10.1c0,20.6,0,41.3,0,61.9
		c0,2.1,0.1,4.2,0.4,6.3c1.1,8.3,6.2,14,14.2,15.8c4.8,1.1,9.6,1,14.4-0.1c4.6-1,7.9-3.7,10-7.9c1.3-2.7,2-5.5,2.4-8.4
		c0.6-5.1,0.4-10.2-0.1-15.3c-0.1-1.6-0.4-3.2-0.6-4.7c-4.4,0-8.6,0-12.8,0c0.1,0.7,0.1,1.4,0.2,2c0.6,4.7,1,9.4,0.5,14.1
		c-0.2,1.8-0.6,3.6-1.2,5.2c-0.8,2.4-2.4,3.2-5.1,3c-2.5-0.1-4.1-1.2-4.7-3.6c-0.4-1.5-0.5-3-0.5-4.5c0-22.2,0-44.4,0-66.6
		c0-1.2,0.1-2.4,0.3-3.6c0.3-1.7,1-3.1,2.7-3.7c3.3-1.2,6.9-0.8,7.9,3.7c0.1,0.3,0.1,0.5,0.2,0.8c0.9,4.4,0.7,8.8,0.3,13.1
		C342.2,120.2,342,122.3,341.7,124.5z"/>
	<path class="st0" d="M412.7,63.8c-1.1-1.7-2.4-3.4-3.7-5c-2.7-3.2-5.5-6.2-8.3-9.3c-1.2-1.4-1.9-3.1-2.3-4.9c-0.5-3-0.1-6,0.6-8.9
		c1.4-5.2,3.8-9.9,6.3-14.6c1.8-3.3,3-6.8,3.1-10.6c0.1-4.3-1.2-8-5.1-10.5c0.1,0.2,0.2,0.4,0.3,0.6c1.5,2.4,2.1,4.9,1.6,7.7
		c-0.6,3.7-2.3,6.9-4.6,9.8c-3.2,4.2-6.1,8.5-8.1,13.4c-1.7,4.2-2.8,8.5-2.4,13.1c0.4,5.1,2.9,9.2,6.3,12.9c2.5,2.7,5.2,5.2,7.6,8
		c1.3,1.5,2.6,3.2,3.5,5c0.5,1,0.6,2.3,0.5,3.4c-0.3,1.8-0.8,3.6-1.6,5.2c-2,4.2-4.2,8.3-6.4,12.3c-1.5,2.8-3.2,5.5-4.9,8.2
		c0.4-0.1,0.7-0.3,1-0.5c3.1-2.9,6.2-5.8,9.1-8.8c3.3-3.5,6-7.3,8.2-11.6C416,73.5,415.8,68.6,412.7,63.8z"/>
	<path class="st0" d="M373.3,73.5c1.3,1.4,2.6,2.7,3.8,4.2c1,1.2,1.4,2.7,0.8,4.2c-1,2.5-1.9,5.1-3,7.5c-1.7,3.5-3.5,6.8-5.3,10.2
		c0.1,0.1,0.2,0.2,0.2,0.3c1.8-1.5,3.7-3,5.4-4.6c3.4-3.1,6.4-6.5,8.5-10.6c2-3.8,1.9-7.5-0.3-11.2c-0.8-1.4-1.8-2.7-2.8-3.9
		c-1.9-2.2-3.9-4.4-5.8-6.6c-1.9-2.1-2.3-4.6-1.9-7.4c0.6-3.9,2.2-7.4,3.8-11c0.9-1.9,1.8-3.8,2.4-5.7c0.8-2.6,0.9-5.4-0.1-8
		c-0.7-1.9-2.1-3.4-3.6-3.9c1.9,2.9,1.7,5.9,0.2,8.8c-0.7,1.4-1.7,2.8-2.7,4.1c-3.2,4-6,8.2-7.4,13.2c-1.6,5.7-0.7,10.9,3.2,15.5
		C370.1,70.3,371.8,71.9,373.3,73.5z"/>
	<path class="st0" d="M430.5,81.5c0.9,1.6,1.3,3.3,0.9,5.2c-0.3,2-0.6,4-0.9,6c-0.4,2.3-0.8,4.6-1.2,6.9c0.1,0,0.2,0.1,0.3,0.1
		c3.5-3.7,6.3-7.7,8-12.5c0.9-2.4,1.1-5,0.2-7.4c-0.9-2.5-2-5-3.2-7.5c-1.1-2.2-1.9-4.5-1.6-7c0.4-3.3,0.9-6.6,1.3-10
		c0.3-2.3,0.6-4.5,0.5-6.8c-0.1-2.4-0.8-4.7-2.9-6.6c0.5,4.2-1.1,7.7-2.9,11c-0.9,1.6-1.7,3.4-2.4,5.1c-2.7,7-2.6,13.8,1.9,20.2
		C429.3,79.3,429.9,80.4,430.5,81.5z"/>
	<path class="st0" d="M278.8,106.1c-0.5-1.9-1.9-3.3-4-3.5c-1.4-0.2-2.9,0-4.4,0v34.3c1.1,0,2.2,0,3.2,0c2-0.1,3.6-1,4.5-2.8
		c0.6-1.2,1.1-2.4,1.4-3.7c1.2-5.4,1.2-11,0.8-16.5C280,111.3,279.5,108.7,278.8,106.1z"/>
	<path class="st0" d="M93.8,112.6c-1.4,17.5-2.9,34.9-4.3,52.5h8.7c-1.3-17.5-2.6-35-4-52.4C94.1,112.7,94,112.6,93.8,112.6z"/>
</g>
</svg>
