<?xml version="1.0" encoding="utf-8"?>
<!-- Generator: Adobe Illustrator 26.0.1, SVG Export Plug-In . SVG Version: 6.00 Build 0)  -->
<svg version="1.1" id="Layer_1" xmlns="http://www.w3.org/2000/svg" xmlns:xlink="http://www.w3.org/1999/xlink" x="0px" y="0px"
	 viewBox="0 0 745.3 165.6" style="enable-background:new 0 0 745.3 165.6;" xml:space="preserve">
<style type="text/css">
	.st0{fill:#CDD0D8;}
</style>
<g>
	<g>
		<path id="path2472_00000114066617458912780310000017573502387336200364_" class="st0" d="M28.7,39.7c-10.2,9.2-13.9,30,4.5,42.1
			l73.1,50l-35.4-81C63.4,31.8,43.1,27.6,28.7,39.7"/>
		<path id="path2474_00000167395453824219440360000006085029401145461403_" class="st0" d="M91.6,0.3C79.8,0.6,61.9,14.7,69.9,36.3
			l36.7,86.2l12.9-90.7C122.4,9.2,105.3-1.2,91.6,0.3"/>
		<path id="path2476_00000000194899234230777230000014277611692172821645_" class="st0" d="M125.1,28.3h6.9c0,0,3.7,0,4.2,1.7
			c-2.7,2.2-10.2,2.5-9.2,14.4l11.7,78.1L175.1,36c7.4-19.3-8.2-35.4-22-35.9c-0.6,0-1.3-0.1-2-0.1C138.7,0,124.4,9,125.1,28.3"/>
		<path id="path2478_00000127754149621903906620000016385590001021050263_" class="st0" d="M173.7,51.6l-34.4,80l73.1-50.3
			c16.8-11.9,14.1-31,4.7-40.4c-4-4.4-11.2-7.9-18.9-7.9C189,33.1,179.3,37.9,173.7,51.6"/>
		<path id="path2480_00000044174852572617079800000008990940553955071667_" class="st0" d="M204.1,92.7l-68.6,47.8H220
			c17.3,0,28.5-17.8,23.5-34.2C240.2,96.1,230.4,88,219,88C214.2,88,209.1,89.4,204.1,92.7"/>
		<path id="path2482_00000102544994887328744910000008463743234339622590_" class="st0" d="M26.7,140.6H110L41.4,92.7
			C25.5,82.6,7.7,88.5,1.2,105.4C-4.2,124.7,9.4,140.6,26.7,140.6"/>
	</g>
	<g>
		<path class="st0" d="M661.8,92.7c0,0,10.5-6.1,10.1-19.3c-0.5-17.7-16.9-21.9-22.5-21.9h-37.9v88.2h42.9
			c10.2,0,22.3-10.2,22.3-23.5C676.7,102.2,667.6,95.4,661.8,92.7z M629.7,66.3H643c4.5,0.2,9.9,3.6,9.9,9.8
			c0,6.1-4.1,10.2-9.3,10.9h-13.9V66.3z M645.9,124.8h-15.9V102h16.2c3.7,0.2,10.3,3.5,10.3,11.1
			C656.4,121.2,649.6,124.4,645.9,124.8z"/>
		<polygon class="st0" points="582.6,100.9 527,47.8 527,139.6 545.7,139.6 545.7,88.8 601.3,143 601.3,51.4 582.6,51.4 		"/>
		<path class="st0" d="M728.5,126.4c-15.6,0-30.4-11.5-29.8-32.5c1.1-17,15-28.8,30.1-28.8c5.5,0,11.2,1.6,16.4,5V52.6
			c-6.1-2.5-12.2-3.6-18-3.6c-25.8,0-47,21.7-47.5,45.5c0.5,27.9,20.6,48.8,46.4,48.8c6.1,0,12.6-1.2,19.2-3.7v-18
			C740,124.8,734.2,126.4,728.5,126.4z"/>
		<path class="st0" d="M353,75.7c-3.9,0-7.5,0.9-10.8,2.8c-0.8,0.4-1.4,1-1.9,1.5V46.6l-18.7,1.5v94.1l18.2,0.2l0-1.8
			c0.1-5.2-0.2-10.3-0.4-15.3c-0.9-19.1-0.8-30.8,10.4-31.7c2.7-0.2,4.7,0.3,6.1,1.6c3.9,3.6,3.7,13.9,3.5,26.8
			c-0.1,5.5-0.2,11.8,0,18.5l0,1.8l18.2-0.3v-41.1c0-9.8-1.9-12.4-5.4-17.3C368.5,78.1,359.8,75.7,353,75.7z"/>
		<path class="st0" d="M289.5,86c-7.6-2.9-10.5-5.1-11.7-6.3c-1.6-1.7-2.4-4-2.4-6.8c0-3.1,1-5.6,3-7.5c2-1.9,4.6-2.9,8-2.9
			c2.4,0,4.9,0.7,7.2,2c0.4,0.2,0.9,0.5,1.5,0.8c2.8,1.5,7,3.8,9.2,6.3l3.3,3.7l-0.8-20.5l-0.6-0.5c-2-1.6-4.1-3-6.2-4
			c-4.1-2.1-8.7-3.1-13.5-3.1c-7.7,0-14.2,2.5-19.4,7.5c-5.2,5-7.8,11.2-7.8,18.6c0,6.8,1.7,12.3,5.1,16.4
			c3.4,4.1,9.2,7.6,17.9,10.8c8.3,3.1,11.5,5.4,12.8,6.7c1.7,1.8,2.5,4.3,2.5,7.6c0,3.6-1.1,6.5-3.4,8.8c-2.3,2.3-5.2,3.4-8.6,3.4
			c-7.7-1-14.6-6.3-20.9-11.9l-3-2.7l0.2,21.2l0.6,0.5c1.5,1.4,4.7,3.1,6.8,4.3l0.7,0.4c4.7,2.6,9.9,3.9,15.6,3.9
			c8,0,14.8-2.7,20.1-7.9c5.3-5.2,8-11.8,8-19.6c0-7.2-1.8-13.1-5.3-17.5C304.9,93.4,298.7,89.5,289.5,86z"/>
		<path class="st0" d="M417.8,77.2c-17.9,0-32.4,14.5-32.3,32.4v0c0,17.9,14.5,32.4,32.4,32.3c17.9,0,32.4-14.5,32.3-32.4v0
			C450.2,91.6,435.7,77.1,417.8,77.2z M434.1,109.5c0,9-7.3,16.3-16.3,16.3c-9,0-16.3-7.3-16.3-16.3v0c0-9,7.3-16.3,16.3-16.3
			C426.8,93.2,434.1,100.5,434.1,109.5L434.1,109.5z"/>
		<path class="st0" d="M488.5,79.3c-5.1,0-10,1.3-14.2,3.5v-2.6h-18.3v85.4h18.3v-27.8c4.3,2.2,9.1,3.5,14.3,3.5
			c17.1,0,31-13.9,30.9-31v0C519.4,93.2,505.6,79.3,488.5,79.3z M500.3,110c0,7.6-6.1,13.7-13.7,13.7c-5.5,0-10.2-3.3-12.4-7.9
			v-11.6c2.2-4.7,6.9-7.9,12.4-7.9C494.2,96.3,500.3,102.4,500.3,110L500.3,110z"/>
	</g>
</g>
</svg>
