<?xml version="1.0" encoding="utf-8"?>
<!-- Generator: Adobe Illustrator 26.0.1, SVG Export Plug-In . SVG Version: 6.00 Build 0)  -->
<svg version="1.1" id="Layer_1" xmlns="http://www.w3.org/2000/svg" xmlns:xlink="http://www.w3.org/1999/xlink" x="0px" y="0px"
	 viewBox="0 0 1626.4 510.2" style="enable-background:new 0 0 1626.4 510.2;" xml:space="preserve">
<style type="text/css">
	.st0{fill:#CDD0D8;}
</style>
<g>
	<path class="st0" d="M150.5,510.2c-6.1-0.9-12.3-1.6-18.4-2.7c-17.5-3.3-33.6-10.2-49.3-20c7,1.7,13.2,3.5,19.5,4.7
		c26.2,5,52.1,4.4,77.3-4.7c29.4-10.6,50.5-30.8,64.7-58.3c10.7-20.7,16.5-42.8,18.6-65.9c1.2-12.9,1.7-26,1.7-39
		c0.1-101.8,0.1-203.7,0-305.5c0-3.7,1-5.6,4.4-7.1c6.9-3,13.7-6.4,20.5-9.7c1.3-0.6,2.5-1.2,4.4-2c0,1.7,0,2.8,0,3.9
		c0,111.9,0,223.8,0,335.8c0,29.6-4.2,58.4-15.3,86c-10.5,26.2-26.4,48.3-50.2,64.1c-17.7,11.8-37.2,18.1-58.4,19.7
		c-1.3,0.1-2.6,0.4-3.8,0.7C161,510.2,155.8,510.2,150.5,510.2z"/>
	<path class="st0" d="M1626.4,383.4c-0.2-0.8-0.4-1.6-0.6-2.5c-1.2-6-1.7-12.2-3.7-17.9c-5.5-16.5-15.7-29.1-32.7-34.7
		c-21.7-7.1-45,0.2-58.7,19c-19.1,26.3-21.1,54.9-8,84.1c9.1,20.3,25.3,32.3,48,34.3c18.7,1.6,33.9-4.9,44.8-20.4
		c3.9-5.6,6.9-11.8,8.5-18.7c-3.9-1.1-7.6-2.1-11-3c-2.1,3.9-3.8,7.6-5.9,11c-11.6,18-37.3,19.8-51.4,3.7
		c-5.9-6.7-9.2-14.6-10.9-23.2c-1.2-6.2-1.7-12.6-2.5-19.3h84V383.4z M1597.9,382.6h-54.5c1.6-12.3,4-24.1,12.4-33.7
		c9.1-10.5,27.3-11.7,35.7,4C1595.2,359.9,1598.2,373.2,1597.9,382.6z"/>
	<path class="st0" d="M125.5,74.1c0,1.4,0,2.4,0,3.5c0,88.4,0.1,176.7-0.1,265.1c0,15.9-2.9,31.4-11.1,45.4
		c-9.3,15.8-23.1,24.8-41.2,27c-18.4,2.2-35.3-1.3-49.9-13.2C9.6,390.6,3,375.7,0.8,358.6c-0.6-4.6-0.7-9.4-0.7-14.1
		c0-70,0-139.9-0.1-209.9c0-3,0.8-4.5,3.7-5.8c39.5-17.7,79-35.5,118.4-53.3C123.1,75,124.1,74.6,125.5,74.1z"/>
	<path class="st0" d="M237,24.5c0,2.9,0,5.2,0,7.5c0,100.4,0,200.8,0,301.2c0,26.1-3.2,51.7-13.1,76.1c-10.3,25.2-26.2,45.9-51.1,58
		c-34.4,16.8-69.2,16.2-103.7-0.3c-6.8-3.2-13.1-7.4-19.6-11.1c0.1-0.3,0.3-0.5,0.4-0.8c5.3,1.5,10.5,3,15.8,4.4
		c25.3,6.5,50.4,6.8,75.2-2.1c26.2-9.3,43.7-27.8,54.4-53.2c8.8-20.9,12.4-42.8,12.5-65.3c0.3-97.7,0.3-195.3,0.2-293
		c0-5.9,1.3-9.2,7.1-11.4C222.5,32,229.4,28.1,237,24.5z"/>
	<path class="st0" d="M610.9,285.1c-2.7,0.3-5,0.6-7.3,0.9c-9.7,1.5-14.1,6.6-14.1,16.5c0,14.3,0,28.7,0,43c0,29.9,0,59.8,0,89.7
		c0,12,5,17.6,16.9,18.4c5.2,0.3,4.4,0.5,4.4,5c0,1.4,0,2.8,0,4.5c-23.7,0-47,0-70.6,0c0-2.9,0-5.8,0-8.9c2.7-0.3,5.4-0.6,8-1
		c8.7-1.5,12.9-6.6,12.9-15.4c0-19.7,0-39.4,0-59.1c0-1.3,0-2.6,0-4.2c-23.4,0-46.5,0-70.2,0c0,1.3,0,2.5,0,3.8
		c0,19.2,0,38.3,0,57.5c0,11.5,4.8,16.7,16.3,18c1.6,0.2,4.4,0.5,4.6,1.2c0.6,2.4,0.4,5,0.1,7.5c-0.1,0.4-2,0.9-3,0.9
		c-18,0.1-35.9,0-53.9,0c-4.4,0-8.7,0-13.7,0c0-2.8-0.1-5.4,0.1-7.9c0.1-0.6,1.4-1.4,2.3-1.5c2.9-0.6,5.9-0.6,8.7-1.4
		c6.4-1.8,10.1-6.8,10.1-13.4c0-46.3,0-92.6,0-139c0-7.4-4.7-12.5-12.7-14c-2.7-0.5-5.4-0.7-8.3-1c0-2.9,0-5.8,0-9.1
		c1.2-0.1,2.3-0.2,3.5-0.2c21.2,0,42.5,0,63.7-0.1c2.8,0,3.7,0.9,3.5,3.5c-0.2,1.8,0,3.7,0,5.8c-2.7,0.3-5.3,0.6-7.8,1
		c-8.4,1.4-13.2,6-13.3,14.5c-0.3,19.4-0.1,38.8,0,58.1c0,0.2,0.1,0.4,0.3,0.9c23.1,0,46.2,0,69.8,0c0-1.2,0-2.5,0-3.8
		c0-17.7,0-35.5,0-53.2c0-10.2-4.1-15-14.2-16.6c-2.1-0.3-4.3-0.5-6.8-0.7c0-2.9,0-5.9,0-9.4c1.1,0,2.2,0,3.3,0
		c21.4,0,42.7,0,64.1-0.1c2.5,0,3.7,0.5,3.4,3.2C610.7,281,610.9,283,610.9,285.1z"/>
	<path class="st0" d="M28.9,426.2c7.6,1.7,14.5,3.5,21.6,4.9c15.7,3.1,31.3,2.9,46.8-1.1c24.7-6.4,40-22.7,47.9-46.5
		c5-14.9,7-30.3,7-45.9c0.1-90.2,0.1-180.5,0-270.7c0-3.3,1.1-4.8,3.9-6.1c6.9-3,13.6-6.4,20.5-9.7c1.2-0.6,2.3-1.1,4.1-1.8
		c0,1.8,0,3.2,0,4.5c0,92.9,0.1,185.7-0.1,278.6c0,22.8-3.2,45.2-13,66.1c-15.1,32.2-40.9,47.8-76.2,48.5
		c-22.4,0.4-42.6-6.3-60.8-19.3C30.2,427.4,29.8,426.9,28.9,426.2z"/>
	<path class="st0" d="M1163.9,224.5c-6.5-0.8-10.3-4.2-11.6-10.7c-0.4-1.9-0.4-3.9-0.4-5.9c0-52.6,0-105.1,0-157.7v-7
		c-15.3,1.4-30.2,2.7-45.2,4V56c2.4,0.1,4.6,0.1,6.8,0.4c6.2,0.7,10,3.7,11.4,9.2c0.5,2.1,0.8,4.3,0.8,6.5c0.1,14.6,0,29.1,0,43.7
		c0,0.9-0.1,1.8-0.2,2.9c-0.4-0.3-0.7-0.3-0.8-0.5c-0.3-0.5-0.6-0.9-0.8-1.4c-4.7-9.4-12.4-15.4-22.4-18.4
		c-21.6-6.5-44.8,3-56.5,23.9c-14.7,26.1-15.4,53.5-4.1,80.9c7.7,18.7,21.3,31,42.3,33.4c16.8,1.9,33.4-4.9,41.1-21.3
		c0.2-0.4,0.5-0.8,1.4-2V234h44.3v-8.9C1167.9,224.9,1165.9,224.7,1163.9,224.5z M1115.8,207.9c-4.3,6.8-10.2,11.7-18.4,13.2
		c-10.8,1.9-19-2.6-25.1-11.2c-5.8-8.2-8.3-17.6-9.5-27.3c-2-16-1.7-31.9,3.6-47.3c1.6-4.5,3.8-8.9,6.6-12.7
		c9.9-14,28.6-14.4,39.7-1.3c6.9,8.1,9.9,17.9,11.5,28.2c0.9,5.9,1.1,12,1.5,15.9C1125.2,181.6,1123.7,195.5,1115.8,207.9z"/>
	<path class="st0" d="M541.7,56c0-3.1,0-5.9,0-8.9c20.7,0,41.2,0,61.9,0c0,3,0,5.8,0,8.8c-2.2,0.3-4.3,0.5-6.4,0.9
		c-9.6,1.8-15.7,9.2-15.7,19c0,31.3,0,62.6,0,93.9c0,9.5-1.1,18.9-4.3,28c-8.7,24.5-30.8,40.3-56.9,40.4
		c-13.4,0.1-26.1-2.3-37.5-9.7c-15.2-9.9-23-24.5-25.8-42c-0.8-5.4-1.1-10.9-1.2-16.3c-0.1-31.3-0.3-62.6,0.1-93.9
		c0.2-14.6-6.9-19.3-19-20c-0.6,0-1.3-0.1-2.1-0.2c0-3,0-5.9,0-9c23.5,0,46.9,0,70.5,0c0,2.9,0,5.7,0,8.8c-2.1,0.3-4.4,0.6-6.6,0.9
		c-9.5,1.4-14.3,6.8-14.3,16.4c-0.1,16.1-0.1,32.2,0,48.3c0,17.8-0.2,35.7,0.3,53.5c0.3,11.6,3.8,22.5,11.8,31.3
		c17.4,18.9,50.1,14.2,61.8-8.8c4.3-8.5,6.1-17.5,6.1-26.9c0-31,0-62,0-93c0-13.2-7.1-20.6-20.4-21.4C543.1,56.1,542.5,56,541.7,56z
		"/>
	<path class="st0" d="M1081.4,454.5c0,2.9,0,5.6,0,8.8c-1.1,0-2.2,0-3.2,0c-18.8,0-37.7,0-56.5,0.1c-2.9,0-4-0.8-3.6-3.7
		c0.2-1.6,0-3.2,0-5.2c1.7-0.2,3.2-0.5,4.7-0.6c9.5-0.9,13.7-5.2,14.2-14.7c0.1-1,0-2,0-3c0-44.6,0-89.1,0-133.7c0-0.9,0-1.8,0-2.6
		c-0.6-9.8-5.1-14.2-15-14.4c-1.3,0-2.6,0-4.1,0c-0.1-1.4-0.2-2.5-0.2-3.6c0-1.7,0-3.5,0-5.4c15.2-1.4,30.1-2.7,45.3-4
		c0,27.3,0,54.6,0,81.7c3.1-4.8,5.8-9.8,9.4-14c14.1-16.9,43.6-18,58.7-2.2c7.2,7.5,9.7,16.9,9.7,27.1c0,23.2,0,46.4,0,69.6
		c0,1.2,0,2.4,0,3.6c0.2,10.2,4.2,14.5,14.2,15.6c1.2,0.1,2.4,0.3,3.9,0.5c0,2.8,0,5.6,0,8.6c-20.9,0-41.7,0-62.7,0
		c0-2.9,0-5.6,0-8.7c2-0.2,3.8-0.4,5.6-0.6c7.8-0.7,12.4-5.5,12.7-13.3c0.1-3.2,0.1-6.4,0.1-9.5c0-21.1,0.1-42.3,0-63.4
		c0-3.2-0.5-6.6-1.2-9.7c-3.9-15.9-21.2-18.5-31.6-11.2c-7.1,4.9-11.1,11.9-14,19.8c-3,8.2-4.5,16.7-4.6,25.4
		c-0.1,15.9-0.1,31.8,0,47.6c0,8.7,4.6,13.6,13.3,14.4C1078.1,454,1079.7,454.3,1081.4,454.5z"/>
	<path class="st0" d="M744.5,225.2c0,3,0,5.8,0,8.8c-21,0-41.8,0-62.8,0c0-2.9,0-5.7,0-8.8c2.1-0.2,4.1-0.5,6.1-0.7
		c7.1-0.8,11.6-5.3,12.1-12.4c0.2-2.1,0.2-4.2,0.2-6.2c0-22.3,0.2-44.7-0.1-67c-0.1-4.9-1-10.2-2.9-14.6c-5-11.3-20.2-14.1-30.6-6.3
		c-8.4,6.3-12.8,15.2-15,25.1c-1.6,7.1-2.6,14.5-2.8,21.7c-0.4,14.7-0.1,29.3-0.1,44c0,10.4,3.8,14.7,14.2,15.9
		c1.3,0.1,2.6,0.4,4,0.6c0,2.9,0,5.7,0,8.7c-21,0-41.9,0-63.1,0c0-2.9,0-5.6,0-8.6c2.8-0.4,5.6-0.7,8.4-1.3
		c5.7-1.2,8.9-4.9,9.8-10.5c0.3-1.8,0.5-3.7,0.5-5.5c0-26.8,0-53.7,0-80.5c0-2.1-0.2-4.2-0.6-6.2c-1-6.2-5.3-10-12-10.5
		c-6.4-0.6-6.4-0.6-6.2-7c0-0.5,0.1-1.1,0.1-2c14.9-1.2,29.6-2.3,44.8-3.5c0,9.1,0,18,0,26.8c0.2,0.1,0.5,0.1,0.7,0.2
		c0.6-1.3,1.2-2.5,1.7-3.8c11.5-24.5,38.7-28.5,56.5-19.5c14,7.1,19,19.6,19,34.5c0,23.5,0,47.1,0,70.6c0,1.9,0.1,3.7,0.4,5.6
		c0.8,6.9,4.8,11,11.8,11.9C740.4,224.7,742.4,224.9,744.5,225.2z"/>
	<path class="st0" d="M1400.7,454.4c-2,0-3.5,0-5,0c-6.8-0.2-10.8-4-11.2-10.8c-0.1-2-0.2-3.9-0.2-5.9c0-22.7,0.2-45.3-0.1-68
		c-0.1-14-4.5-26.3-16.2-35c-7.9-5.9-17-8.2-26.7-8.9c-15.4-1-29.6,2.6-41.6,12.6c-7.8,6.5-12.9,14.5-12.4,25.2
		c0.3,5.8,4.4,11.1,9.8,12.7c5.9,1.8,12.2-0.4,15.7-5.3c4.8-6.8,3.3-14.5-4.2-20.9c3-4.1,6.5-6.7,11.5-8.5
		c16.1-6,30.7,0.3,35.9,15.2c2.3,6.6,2.6,13.5,2.2,20.4c0,0.8-1.2,1.9-2.1,2.3c-5.7,2.5-11.6,4.7-17.2,7.2
		c-12.6,5.6-25.3,10.8-37.6,17c-9.2,4.6-15.8,11.9-17.6,22.7c-2.4,13.9,2.6,26.9,13.9,33.6c16.8,10.1,45.1,8.9,58.5-16
		c0.5-1,1.1-2,1.7-2.9c0.5,1,0.6,1.7,0.5,2.5c0,10.6,5.1,17.6,15.3,20.6c8.4,2.4,16.9,1.6,25.3-0.5c0.7-0.2,1.8-1.1,1.8-1.8
		C1400.9,459.6,1400.7,457.1,1400.7,454.4z M1352.5,433.7c-4.6,9-11.2,15.3-21.7,16.5c-11.4,1.3-20.4-6.2-21.3-17.6
		c-0.9-11.9,4.1-20.7,14.7-25.8c10.6-5.2,21.5-9.7,32.3-14.5c0.5-0.2,1-0.2,1.8-0.4C1358.4,406.2,1359.2,420.5,1352.5,433.7z"/>
	<path class="st0" d="M850.3,454.5c-6.7-0.1-10.5-3.4-11.4-10.2c-0.2-1.9-0.3-3.9-0.3-5.9c-0.1-24.1,0.3-48.2-0.4-72.2
		c-0.4-15-7-27.7-21-34.3c-21-9.9-41.7-8.3-60.9,5c-8.3,5.7-13.7,13.6-14.8,24.1c-0.8,7.4,4.3,14.8,11.2,15.9
		c8.5,1.4,15.5-3.4,16.9-11.6c1.1-6.3-1.7-11-6.9-15.1c7.9-9.1,17.8-11.8,28.9-10c10.4,1.7,16.6,8.7,19.1,18.5
		c1.5,5.6,1.4,11.7,2.1,17.5c0.2,1.9-0.6,2.9-2.4,3.6c-7.4,2.9-14.8,5.9-22.1,9.1c-11.1,4.9-22.3,9.5-33,15.2
		c-10,5.3-16.6,13.5-17.8,25.5c-1.3,13.2,4.5,25.8,15.7,31.5c19.1,9.8,44.9,6,57.1-16.8c0.5-0.8,1-1.7,1.5-2.5
		c0.5,1.1,0.5,2,0.5,2.8c0.5,8.7,4.2,15.4,12.5,18.8c9.9,4,19.9,2.7,29.8,0.2v-9C853.1,454.5,851.7,454.5,850.3,454.5z M810.1,424.7
		c-1.2,7.4-5.1,13.9-10.7,19.2c-8.7,8.3-23.2,8.7-30.6,0.8c-7-7.5-7-22.2,0.4-30.5c2.8-3.1,6.3-5.9,10-7.7
		c10.4-5.1,21.1-9.5,31.7-14.2c0.5-0.2,1-0.3,2.8-0.8C812.5,403.1,811.9,414,810.1,424.7z"/>
	<path class="st0" d="M719.1,353.2c-9.8-18-24.8-27.6-45.5-27.4c-19,0.2-33.8,9-43.9,24.6c-16.9,25.9-18.4,53.6-5.5,81.5
		c9.2,19.9,25,31.6,47.2,33.8c27.7,2.8,47.2-14.3,53.8-39c-1.8-0.6-3.7-1.1-5.6-1.6c-1.9-0.5-3.7-1-5.5-1.5
		c-1.3,2.8-2.4,5.3-3.7,7.7c-11.4,21.4-38.9,24.5-54.3,6.1c-6.4-7.6-9.4-16.7-10.9-26.3c-0.7-4.9-1-9.9-1.5-15.1h83.5
		C727.9,380.7,726.3,366.4,719.1,353.2z M644.5,382.6c1.9-13.5,4.3-26.6,14.9-36.2c9.8-8.9,24.7-6.8,31.9,4.4
		c6.2,9.6,7.2,20.6,7.9,31.8H644.5z"/>
	<path class="st0" d="M1017,136.4c-4.4-14.5-12.2-26.7-25.9-34c-21.8-11.7-48.8-6.4-64.8,13.8c-21,26.6-22.9,56.1-9.4,86.5
		c8.1,18.2,22.4,29.8,42.4,33.2c18.1,3.1,34.2-0.9,46.7-15.2c5.8-6.7,9.6-14.4,12.2-23.2c-2.1-0.6-3.8-1.1-5.6-1.6
		c-1.9-0.5-3.7-1-5.6-1.5c-1.6,3.2-3.1,6.3-4.7,9.2c-11.3,20.6-42.1,22.5-55.5,1.7c-4.3-6.6-7.1-13.8-8.4-21.5
		c-0.9-5.5-1.3-11.2-1.9-17.2h83.4C1020.4,156,1019.9,146.1,1017,136.4z M937.5,153.4c0.9-10.1,3.1-19.5,8.1-28.1
		c2.7-4.6,6.1-8.6,11-11c12.1-6,24.2-1.2,30,11.6c3.8,8.6,5.1,17.8,5.4,27.5H937.5z"/>
	<path class="st0" d="M1262.8,425c3.4,1,7,2.2,10.6,3.3c-3.2,15-15.7,32.3-35.3,36.6c-24.3,5.3-49.4-5.2-61.7-27.7
		c-15.9-28.9-15.5-58.2,2.7-86.1c15.2-23.3,47.4-32,72.2-20.2c10.9,5.2,18.6,13.5,21.2,25.6c1.3,6.1,0.9,12.1-3.9,16.8
		c-5.3,5.2-14,5.2-19.3,0.1c-5.8-5.5-6.1-14.1-0.8-20.1c0.8-0.9,1.8-1.6,2.8-2.5c-4.1-5.5-9.6-7.9-15.8-8.7
		c-15-1.9-26.2,3.7-33.6,17c-7.4,13.3-8.9,27.7-8.1,42.6c0.6,11.2,2.8,21.9,8.9,31.5c7.1,11.2,17.1,17,30.6,16
		c12.7-1,21.6-7.6,27-19c0.7-1.6,1.5-3.1,2.2-4.7C1262.3,425.3,1262.4,425.2,1262.8,425z"/>
	<path class="st0" d="M961.9,288.8c4.2,0,8.3,0,13,0c0,13.6,0,27.1,0,41c4.4,0,8.3,0,12.2,0c7.1,0,14.2,0.1,21.3,0
		c2.4,0,3.7,0.5,3.4,3.2c-0.2,2.5-0.2,5,0,7.5c0.2,2.6-0.6,3.4-3.3,3.4c-9.7-0.2-19.5-0.1-29.2-0.1c-1.3,0-2.6,0-4,0
		c-0.1,0.7-0.3,1.1-0.3,1.5c0,29.1,0,58.2,0.1,87.4c0,7.8,3.7,13.2,9.5,15c6.7,2.2,13.3,0.2,18-6.1c2.4-3.3,4.1-7.2,6.4-11.2
		c2.7,0.7,5.8,1.6,9.1,2.5c-4.9,15.1-12,27.8-28.3,32.1c-12.6,3.3-28.7-0.3-35.9-12c-3.5-5.6-5-11.8-5-18.4c0-28.7,0-57.4,0-86.1
		c0-1.4,0-2.8,0-4.7c-8.3,0-16.3,0-24.8,0c0-3-0.1-5.6,0.1-8.2c0-0.6,0.9-1.5,1.6-1.6c21.7-5.6,31-21.6,35.1-41.8
		c0.2-1,0.4-1.9,0.6-2.9C961.6,289.2,961.7,289.1,961.9,288.8z"/>
	<path class="st0" d="M837.9,114.4c-8.2,0-16.2,0-24.2,0c0-3.3,0-6.2,0-9.4c11-2.4,20-8,26.6-17.2c5.4-7.7,8.3-16.3,10-25.4
		c0.5-2.6,1.5-3.2,3.9-3.1c3.2,0.2,6.3,0,9.9,0c0,13.7,0,27.2,0,41.1c12.4,0,24.4,0,36.6,0c0,4.8,0,9.2,0,14c-12.1,0-24.1,0-36.6,0
		c0,1.5,0,2.7,0,3.9c0,27.3,0,54.5,0,81.8c0,2.1,0.2,4.2,0.6,6.2c1,5.9,3.7,10.5,9.8,12.3c6.6,1.8,12.3,0.1,16.5-5.2
		c2.8-3.6,4.8-7.8,7.4-12.1c2.5,0.7,5.5,1.5,8.5,2.3c-4.3,20.5-20.1,35.9-41.1,33.1c-18.1-2.5-27.8-13.8-27.7-32.1
		c0.1-28.9,0-57.8,0-86.7C838.1,116.8,838,115.9,837.9,114.4z"/>
	<path class="st0" d="M1493.4,342.2c-4.5-4.2-9.4-3.8-14.4-2.5c-7.6,2.1-12.9,7.2-16.9,13.7c-7.2,11.6-9.7,24.5-9.9,37.9
		c-0.3,15.5-0.1,31.1-0.1,46.6c0,10.5,3.9,14.8,14.5,16c1.2,0.1,2.4,0.3,3.7,0.5c0,2.9,0,5.7,0,8.9c-1.9,0-3.8,0-5.6,0
		c-18,0-35.9-0.1-53.9,0.1c-3,0-4.2-0.8-3.8-3.8c0.2-1.6,0-3.2,0-5c1.8-0.2,3.3-0.5,4.8-0.6c9.6-1,14-5.7,14-15.5
		c0.1-11.9,0-23.9,0-35.8c0-15.4,0-30.9,0-46.3c0-2-0.2-3.9-0.6-5.9c-1.2-6.3-5.3-9.9-11.7-10.5c-6.8-0.6-6.8-0.6-6.5-7.5
		c0-0.4,0.1-0.8,0.2-1.6c14.8-1.1,29.6-2.3,44.8-3.5c0,8.6,0,16.8,0,26c2-3.8,3.3-6.9,5.1-9.7c9.2-15.1,26.8-21.3,41.9-14.8
		c10.8,4.7,17.3,16.8,15.1,28.2c-1.4,6.8-6,11.4-12.2,11.9c-6.6,0.6-12.4-2.8-14.7-8.7c-2.5-6.2-0.6-12.6,4.9-17
		C1492.4,343.1,1492.7,342.8,1493.4,342.2z"/>
	<path class="st0" d="M924.8,454.5c0.1,1.1,0.2,2,0.2,2.8c0,1.8,0,3.7,0,5.8c-21.2,0-42.2,0-63.3,0c0-2.9,0-5.7,0-8.6
		c2.2-0.2,4.2-0.5,6.3-0.7c7-0.8,11.3-5.2,12-12.2c0.1-1.1,0.1-2.2,0.1-3.3c0-45.6,0-91.1,0-136.7c0-1.1,0-2.2-0.1-3.3
		c-0.6-8-4.9-12.4-13-12.8c-1.9-0.1-3.9,0-6,0c0-3.1,0-5.8,0-9c14.9-1.3,29.8-2.7,45.3-4c0,1.6,0,2.9,0,4.1c0,53.4,0,106.9,0,160.3
		c0,2.1,0.2,4.2,0.5,6.2c1.1,6.2,5.5,9.9,12,10.6C920.9,454,922.8,454.3,924.8,454.5z"/>
	<path class="st0" d="M749.5,101.6c15.5-1.2,30.6-2.3,46.2-3.5c0,1.8,0,3.2,0,4.6c0,34.8,0.1,69.7-0.1,104.5
		c0,10.8,3.2,17,15.6,17.7c0.9,0,1.7,0.2,2.7,0.4c0,2.9,0,5.7,0,8.7c-21,0-42,0-63.2,0c0-2.9,0-5.7,0-8.8c2.4-0.3,4.8-0.4,7.1-0.8
		c7.3-1.2,11.5-6.2,11.5-14.1c0.1-28.5,0.1-56.9,0-85.4c0-9.4-5-13.9-14.3-14.2c-7-0.2-5.6,0.9-5.8-6.1
		C749.3,103.7,749.5,102.8,749.5,101.6z"/>
	<path class="st0" d="M781.9,41.1c9.2,0,17,8,17.1,17.3c0.1,9.7-7.8,18-17.2,18c-9.4,0-17-7.8-17.1-17.6
		C764.7,48.8,772.2,41.1,781.9,41.1z"/>
</g>
</svg>
