<svg xmlns="http://www.w3.org/2000/svg" version="1.1" xmlns:xlink="http://www.w3.org/1999/xlink" width="512" height="512" x="0" y="0" viewBox="0 0 24 24" style="enable-background:new 0 0 512 512" xml:space="preserve" class=""><g><path d="M6 12c3.309 0 6-2.691 6-6S9.309 0 6 0 0 2.691 0 6s2.691 6 6 6ZM6 2c2.206 0 4 1.794 4 4a3.979 3.979 0 0 1-1.225 2.87A2.993 2.993 0 0 0 6.005 7h-.01a2.994 2.994 0 0 0-2.772 1.869A3.984 3.984 0 0 1 2 6c0-2.206 1.794-4 4-4ZM4.5 4.5a1.5 1.5 0 1 1 3.001.001A1.5 1.5 0 0 1 4.5 4.5Zm18.863 2.379a1 1 0 0 1-1.295-.569l-1.114-2.855C17.297 11.207 10.68 16.421 1.26 18.966a1 1 0 1 1-.521-1.932c8.859-2.393 15.057-7.279 18.45-14.532L16.117 3.7a.999.999 0 1 1-.727-1.863L19.791.12a1.876 1.876 0 0 1 2.424 1.062l1.717 4.401a1 1 0 0 1-.568 1.295ZM23 9v14a1 1 0 1 1-2 0V9a1 1 0 1 1 2 0Zm-5 5v9a1 1 0 1 1-2 0v-9a1 1 0 1 1 2 0Zm-5 4v5a1 1 0 1 1-2 0v-5a1 1 0 1 1 2 0Zm-5 2v3a1 1 0 1 1-2 0v-3a1 1 0 1 1 2 0Zm-5 2v1a1 1 0 1 1-2 0v-1a1 1 0 1 1 2 0Z" fill="#b9fd50" opacity="1" data-original="#000000" class=""></path></g></svg>