<svg xmlns="http://www.w3.org/2000/svg" version="1.1" xmlns:xlink="http://www.w3.org/1999/xlink" width="512" height="512" x="0" y="0" viewBox="0 0 24 24" style="enable-background:new 0 0 512 512" xml:space="preserve" class=""><g><path d="M18.5 0h-13A5.506 5.506 0 0 0 0 5.5v13A5.506 5.506 0 0 0 5.5 24h13a5.506 5.506 0 0 0 5.5-5.5v-13A5.506 5.506 0 0 0 18.5 0zM3 10h2v4H3zm13 .5H8V3h8zm-8 3h8V21H8zM19 10h2v4h-2zm2-4.5V7h-2V3.051A2.5 2.5 0 0 1 21 5.5zM5 3.051V7H3V5.5a2.5 2.5 0 0 1 2-2.449zM3 18.5V17h2v3.949A2.5 2.5 0 0 1 3 18.5zm16 2.449V17h2v1.5a2.5 2.5 0 0 1-2 2.449z" fill="#b9fd50" opacity="1" data-original="#000000"></path></g></svg>