<svg xmlns="http://www.w3.org/2000/svg" version="1.1" xmlns:xlink="http://www.w3.org/1999/xlink" width="512" height="512" x="0" y="0" viewBox="0 0 24 24" style="enable-background:new 0 0 512 512" xml:space="preserve" class=""><g><path d="M17.31 15c3.845 0 5.76 4.029 6.607 6.695.364 1.147-.521 2.305-1.748 2.305h-4.264C15.525 24 13 21.985 13 19.5s1.93-4.5 4.31-4.5ZM1.172 19.119A4.001 4.001 0 0 0 0 21.947V24h2.053a3.995 3.995 0 0 0 2.828-1.172l13.43-13.43-3.71-3.71L1.172 19.119ZM23.232.768a2.624 2.624 0 0 0-3.71 0l-3.507 3.507 3.71 3.71 3.507-3.507a2.624 2.624 0 0 0 0-3.71ZM.768 4.478a2.624 2.624 0 0 1 3.71-3.71l5.899 6.317-3.71 3.71L.768 4.478Z" fill="#b9fd50" opacity="1" data-original="#000000" class=""></path></g></svg>