<svg xmlns="http://www.w3.org/2000/svg" version="1.1" xmlns:xlink="http://www.w3.org/1999/xlink" width="512" height="512" x="0" y="0" viewBox="0 0 24 24" style="enable-background:new 0 0 512 512" xml:space="preserve" class=""><g><path d="M19 0H5C2.243 0 0 2.243 0 5v14c0 2.757 2.243 5 5 5h14c2.757 0 5-2.243 5-5V5c0-2.757-2.243-5-5-5ZM7.293 12.705l2.583 2.583a.999.999 0 1 1-1.414 1.414l-2.583-2.583C5.312 13.553 5 12.799 5 11.997s.312-1.555.879-2.122l2.583-2.583a.999.999 0 1 1 1.414 1.414l-2.583 2.583c-.189.189-.293.44-.293.707s.104.519.293.708Zm10.828 1.419-2.583 2.583a.997.997 0 0 1-1.414 0 .999.999 0 0 1 0-1.414l2.583-2.583a.998.998 0 0 0 0-1.415l-2.583-2.584a.999.999 0 1 1 1.414-1.414l2.583 2.583c.566.566.879 1.32.879 2.121s-.312 1.555-.879 2.122Z" fill="#b9fd50" opacity="1" data-original="#000000" class=""></path></g></svg>