<svg width="105" height="6" viewBox="0 0 105 6" fill="none" xmlns="http://www.w3.org/2000/svg">
<path d="M2.13611 4.57129C3.06067 4.57129 3.81018 3.82178 3.81018 2.89722C3.81018 1.97265 3.06067 1.22314 2.13611 1.22314C1.21154 1.22314 0.462034 1.97265 0.462034 2.89722C0.462034 3.82178 1.21154 4.57129 2.13611 4.57129ZM104.058 3.11917C104.181 2.99659 104.181 2.79785 104.058 2.67526L102.06 0.677687C101.938 0.555106 101.739 0.555106 101.617 0.677687C101.494 0.800268 101.494 0.999012 101.617 1.12159L103.392 2.89722L101.617 4.67284C101.494 4.79542 101.494 4.99417 101.617 5.11675C101.739 5.23933 101.938 5.23933 102.06 5.11675L104.058 3.11917ZM2.13611 3.21111L103.836 3.21111V2.58333L2.13611 2.58333V3.21111Z" fill="#B9FD50"/>
</svg>
