<svg width="47" height="16" viewBox="0 0 47 16" fill="none" xmlns="http://www.w3.org/2000/svg">
<path d="M4.98488 7.67768C5.24298 6.71458 6.23295 5.72461 7.19605 5.46651L13.2004 3.8574C14.1635 3.5993 14.735 4.17081 14.4769 5.13391L12.8678 11.1383C12.6097 12.1014 11.6197 13.0914 10.6567 13.3495L4.65228 14.9586C3.68918 15.2167 3.11767 14.6451 3.37577 13.6821L4.98488 7.67768Z" fill="#CDD0D8"/>
<path d="M2.57777 5.27045C2.83587 4.30735 3.82585 3.31738 4.78894 3.05928L10.7933 1.45017C11.7564 1.19207 12.3279 1.76358 12.0698 2.72668L10.4607 8.73105C10.2026 9.69415 9.21265 10.6841 8.24955 10.9422L2.24517 12.5513C1.28208 12.8094 0.710565 12.2379 0.968664 11.2748L2.57777 5.27045Z" fill="#CDD0D8"/>
<path d="M20.0561 10.5358H22.1215V11.3444H19.0541V5.23608H20.0561V10.5358Z" fill="#CDD0D8"/>
<path d="M22.6254 8.90105C22.6254 8.41473 22.725 7.98408 22.9242 7.60908C23.1293 7.23409 23.4047 6.94406 23.7504 6.73898C24.1019 6.52805 24.4886 6.42258 24.9105 6.42258C25.2913 6.42258 25.6224 6.49875 25.9036 6.6511C26.1907 6.79758 26.4192 6.98214 26.5892 7.2048V6.50168H27.5999V11.3444H26.5892V10.6237C26.4192 10.8522 26.1878 11.0426 25.8948 11.195C25.6019 11.3473 25.2679 11.4235 24.8929 11.4235C24.4769 11.4235 24.0961 11.318 23.7504 11.1071C23.4047 10.8903 23.1293 10.5914 22.9242 10.2106C22.725 9.82389 22.6254 9.38737 22.6254 8.90105ZM26.5892 8.91863C26.5892 8.58465 26.5189 8.29462 26.3782 8.04853C26.2435 7.80244 26.0648 7.61494 25.8421 7.48604C25.6195 7.35714 25.3792 7.29268 25.1214 7.29268C24.8636 7.29268 24.6234 7.35714 24.4007 7.48604C24.1781 7.60908 23.9964 7.79365 23.8558 8.03974C23.7211 8.27997 23.6537 8.56707 23.6537 8.90105C23.6537 9.23503 23.7211 9.52799 23.8558 9.77994C23.9964 10.0319 24.1781 10.2252 24.4007 10.36C24.6292 10.4889 24.8695 10.5534 25.1214 10.5534C25.3792 10.5534 25.6195 10.4889 25.8421 10.36C26.0648 10.2311 26.2435 10.0436 26.3782 9.79752C26.5189 9.54557 26.5892 9.25261 26.5892 8.91863Z" fill="#CDD0D8"/>
<path d="M33.2752 6.50168L30.3045 13.6207H29.2674L30.2518 11.2653L28.3446 6.50168H29.4608L30.8231 10.193L32.2381 6.50168H33.2752Z" fill="#CDD0D8"/>
<path d="M38.4697 8.80437C38.4697 8.98601 38.458 9.15007 38.4345 9.29655H34.7344C34.7637 9.68326 34.9073 9.9938 35.1651 10.2282C35.4229 10.4625 35.7393 10.5797 36.1143 10.5797C36.6533 10.5797 37.0342 10.3541 37.2568 9.90298H38.3379C38.1914 10.3483 37.9248 10.7145 37.5381 11.0016C37.1572 11.2828 36.6826 11.4235 36.1143 11.4235C35.6514 11.4235 35.2354 11.3209 34.8662 11.1159C34.503 10.9049 34.2159 10.612 34.0049 10.237C33.7999 9.85611 33.6973 9.41667 33.6973 8.91863C33.6973 8.42059 33.7969 7.98408 33.9961 7.60908C34.2012 7.22823 34.4854 6.93527 34.8487 6.7302C35.2178 6.52512 35.6397 6.42258 36.1143 6.42258C36.5713 6.42258 36.9785 6.52219 37.3359 6.72141C37.6933 6.92062 37.9716 7.20187 38.1709 7.56514C38.3701 7.92256 38.4697 8.33563 38.4697 8.80437ZM37.4238 8.48797C37.4179 8.11884 37.2861 7.82295 37.0283 7.6003C36.7705 7.37764 36.4512 7.26632 36.0703 7.26632C35.7246 7.26632 35.4287 7.37764 35.1826 7.6003C34.9366 7.81709 34.7901 8.11298 34.7432 8.48797H37.4238Z" fill="#CDD0D8"/>
<path d="M40.4576 7.2048C40.6041 6.95871 40.7975 6.76828 41.0377 6.63352C41.2838 6.4929 41.5738 6.42258 41.9078 6.42258V7.45967H41.6529C41.2603 7.45967 40.9615 7.55928 40.7564 7.7585C40.5572 7.95771 40.4576 8.30341 40.4576 8.79558V11.3444H39.4557V6.50168H40.4576V7.2048Z" fill="#CDD0D8"/>
<path d="M44.5865 11.4235C44.2057 11.4235 43.8629 11.3561 43.5582 11.2213C43.2594 11.0807 43.0221 10.8932 42.8463 10.6588C42.6706 10.4186 42.5768 10.152 42.5651 9.85904H43.6022C43.6198 10.0641 43.7164 10.237 43.8922 10.3776C44.0739 10.5123 44.2994 10.5797 44.569 10.5797C44.8502 10.5797 45.067 10.527 45.2193 10.4215C45.3775 10.3102 45.4566 10.1696 45.4566 9.99966C45.4566 9.81803 45.3688 9.68326 45.193 9.59537C45.0231 9.50748 44.7506 9.41081 44.3756 9.30534C44.0123 9.20573 43.7164 9.10906 43.4879 9.01531C43.2594 8.92156 43.0602 8.77801 42.8903 8.58465C42.7262 8.3913 42.6442 8.13642 42.6442 7.82002C42.6442 7.56221 42.7204 7.32784 42.8727 7.11691C43.0251 6.90011 43.2418 6.7302 43.5231 6.60715C43.8102 6.48411 44.1383 6.42258 44.5074 6.42258C45.0582 6.42258 45.5006 6.56321 45.8346 6.84445C46.1744 7.11984 46.356 7.49776 46.3795 7.97822H45.3775C45.36 7.76143 45.2721 7.58858 45.1139 7.45967C44.9557 7.33077 44.7418 7.26632 44.4723 7.26632C44.2086 7.26632 44.0065 7.31612 43.8659 7.41573C43.7252 7.51534 43.6549 7.64717 43.6549 7.81123C43.6549 7.94013 43.7018 8.04853 43.7955 8.13642C43.8893 8.22431 44.0035 8.29462 44.1383 8.34735C44.2731 8.39423 44.4723 8.45575 44.736 8.53192C45.0875 8.62567 45.3746 8.72234 45.5973 8.82195C45.8258 8.9157 46.0221 9.05632 46.1861 9.24382C46.3502 9.43131 46.4351 9.68033 46.441 9.99087C46.441 10.2663 46.3648 10.5123 46.2125 10.7291C46.0601 10.9459 45.8434 11.1159 45.5621 11.2389C45.2867 11.3619 44.9615 11.4235 44.5865 11.4235Z" fill="#CDD0D8"/>
</svg>
