<svg id="Layer_1" data-name="Layer 1" xmlns="http://www.w3.org/2000/svg" viewBox="0 0 3815.7 1171.5"><defs><style>.cls-1{fill:#fff;}</style></defs><path class="cls-1" d="M3035,311.9s21.7-55.8,21.7-56.9,205-56.5,205-56.5l-50.4,68.3Zm112.2,37.8,33.4-45.3-95.3,24.7Zm649,188.2,19.5-59.7-129-147.1-6,83.5Zm-53.3-16.5-66.3-70v52.9ZM3566.7,667.6l-3.3-73.4-59.7,2.3Zm-60.1,59.2,63.5-10.4L3466.8,594.2l-77.7,3.8ZM3227.2,490.3l16.4-18.1-46.9-48.4-73.6,64ZM3133,570.5h511.9L3668.6,108l-47.4-49.2-30.3,458.6H3092.4Zm349.4-84.1h68.9l-16.1-193.2-18-18.6-45.5,37.3Zm2.5-290,93.5,100.2,3.2-82.1-72.2-81.7-86.7,20.6L3368,224.8ZM3332.4,397.5l166.4-145-24-23-69.5,17L3290.5,347.1Zm119.7,38.4-2.4-64.2-35.3-10.6-52.1,47.1Zm-161.6,52.6h84.8L3245.5,342.1,3503.7,0l-56.6,5.6L3180.6,353.5Zm297.4-311.1,3.1-91-47.6,41.4Zm-72.6-76.5L3512,34.1l-60.4,78.4Zm142.1,618v-46h17.3v-6.1h-41.3v6.1h17.1v46Zm30.8,0V674.5l15.1,44.4h6.2l15.2-43.6v43.6h6.6V666.8h-9.2L3709.6,703c-1.3,3.7-2.2,6.5-2.8,8.4-.5-1.7-1.4-4.3-2.5-7.7L3692,666.8h-10.4v52.1ZM1422.1,991.4c-.1,1.3-2.8,3.2-4.4,3.3-5.6.5-11.3.3-17,.3-19.1,0-38.3-.2-57.5.1-4.9.1-5.9-1.7-5.4-6.2,1.1-10.1-2.7-17.3-12-21.3-13.4-5.7-26.8-5.3-39.1,2.8-9.6,6.4-9.7,16.2-1.1,23.9,6.6,5.9,14.8,7.4,22.9,9.2,18.4,4,37,7.3,55.1,12.3,15.9,4.5,30.4,12.2,39.6,27,11.6,18.5,13.1,38.4,6.4,59-9.6,29.5-30.9,47.5-59,58.3-18.3,7.2-37.5,10.5-57.1,11.1-28.9,1-57.7-.3-85.6-9-12.8-4.1-24.7-9.7-35-18.6-13.4-11.8-21.4-30.6-20.5-47.3-3.7,5.2-7.1,10.4-10.9,15.4-20.4,26.7-47.5,43.3-79.5,52.6s-63.5,9.5-94.9-1.1c-45.9-15.4-67.3-54.1-66.6-98.4.4-23.1,7.3-44.5,17-66a57.7,57.7,0,0,0-22.8,4.6c-21.5,9.5-34.9,26.9-42.4,48.2-6.8,19.5-11.3,40-16.5,60.1-4,15.8-7.6,31.7-11.3,47.6-.7,2.9-1.8,4.7-5.2,4.7l-76.5-.7-2.4-.3c.2-1.6.2-3,.5-4.4q25.5-111,50.9-222c2.6-11.3,2.6-11.1,14-11,21.8.2,43.7.1,65.5.1l2.8.2c-2,8.6-4,17-5.9,25.4l1,.7c21.4-22.9,49-29.2,79.7-30.7-4.3,16.8-8.4,32.6-12.4,48.5l.9.8a79.7,79.7,0,0,1,5.5-6.1c46.9-46.4,102.6-59.6,165-40.5,38.1,11.6,60,39.2,65.6,79.1,2,13.6.9,27.2-1.6,40.7-.9,5.3-3.7,8.8-8.7,10.5l-52.8,18.7-20.1,7c0,.4.1.9.1,1.4h157.3c.3,1.3.5,1.6.4,1.9-2.5,17.7,4.5,28.5,21.8,32.1,11.7,2.5,23.5,3.2,34.9-1.8s17.2-15.3,14.8-24.8c-1.8-7.1-6.8-11.8-13.2-14.1a196.8,196.8,0,0,0-27.3-7.5c-20.3-4.2-40.2-9.6-58-20.7-14.1-8.9-25.1-20.5-29.4-37.1-6.3-24.8,6.1-55,28.3-70.5,19.3-13.5,41.1-19.5,64.1-21.8,30.6-3.1,61.3-3,91.1,6.3,14.6,4.5,28.2,11.1,37.6,24.1S1423.8,975.8,1422.1,991.4Zm-335.6,7.5c-1.6-11.8-8.1-21.3-20.3-25.7s-23.4-.4-33.3,6.4c-14.5,10.1-24.1,24.3-31.1,40.2-9,20.7-15.1,41.9-10.2,65a43.8,43.8,0,0,0,3.5,9.8l.9,1.5a33.3,33.3,0,0,0,4.3,5.6l1.8,1.7h0l2,1.6,1.1.7,2.2,1.3a19.4,19.4,0,0,0,3.6,1.5l1.2.4,2.6.7a33.8,33.8,0,0,0,7.2.7,41.9,41.9,0,0,0,8.8-.7,40.9,40.9,0,0,0,8.4-2.6,36.1,36.1,0,0,0,4.4-2.2,51.7,51.7,0,0,0,10.6-8.3C1080.6,1069.3,1091.7,1036.5,1086.5,998.9Zm916.4-73.4c-2.3,10.5-4.3,20.1-6.5,29.6-1.5,7.2-3.3,14.3-4.7,21.4-.6,3.3-2.2,4.5-5.4,4.4-10.7,0-21.3.1-32-.1-3.3,0-5.2.6-6,4.2-7.9,36.8-16.1,73.5-24,110.3-2.1,9.5.7,13.6,10.2,15.1,5.9.9,11.9.7,17.9.9,3,.1,5.9,0,9.9,0-1.3,5.5-2.3,10.6-3.6,15.6-2.5,10.2-5.2,20.4-7.6,30.6-1.2,5.4-3.9,8.1-9.8,8.4-23.3,1.1-46.7,2.6-69.7-2.6-25.4-5.8-37.6-23.8-33.3-49.5,2.9-16.6,7-32.9,10.6-49.4,5.9-26.3,11.7-52.6,17.6-79,.7-3.2-.3-4.2-3.3-4.2-13.2,0-26.4,0-39.5-.2-3.6-.1-4.4,1.9-5,4.8-6.6,29.6-13.3,59.1-20,88.7s-12.8,56.9-19.1,85.3c-.6,2.6-1.5,4.2-4.5,4.2l-81.5-.3a9.5,9.5,0,0,1-2-.7c13.5-60.4,27-120.9,40.7-181.9H1689c.9,3.4,1.8,6.4,2.5,9.4,10.2,47.4-2,89.2-32.3,126-42.1,51.2-117,67.1-176.1,44.6-37.3-14.3-61.9-51.9-61.7-92.7.3-75.7,61.3-148.7,150-152.3,22.1-.8,43.6,1.5,64.1,10.2,22.2,9.4,38.9,24.7,49.3,46.7.7,1.5,1.6,3,3.2,6l5.5-23.7c1.9-8.8,3.9-17.6,5.6-26.4.6-2.7,1.9-3.5,4.4-3.4,11.5.1,23-.2,34.5.2,4.5.2,5.9-1.3,7.1-5.4,3.6-12.3,7.1-24.7,12.1-36.4,7.8-18.1,22.3-29.1,41.5-33.6,24.3-5.8,48.9-5.1,74-3.3-.1,1.5,0,2.8-.2,4-2.6,12.2-5.3,24.4-7.8,36.7-.7,3.6-2.3,4.8-6,4.7-15.8-.5-22.3,4.4-26.7,19.8-1.1,4-2,8.2-3.1,12.9,2.6.2,4.2.5,5.8.5,13.8.1,27.7,0,41.5.2,3.3,0,4.2-1.7,4.8-4.5,3.5-16.3,7.1-32.5,10.6-48.8.6-2.5,1-4.2,4.3-4.2h74.4l3.8.3c-4.2,18.8-8.4,37.4-12.7,56.8ZM1610,1014c-1-10.4-2.1-21.3-8.8-30.7s-15.2-12.6-25.5-11.9-19.2,5.3-26.9,12.1c-15.5,13.8-25.3,31.2-31.5,50.7-5,15.8-8.3,31.9-5,48.6,4,20.3,18.7,30.5,39,26.8,14.5-2.7,24.8-12,33.3-23C1600.9,1065.5,1608,1040.9,1610,1014ZM199.5,843.5H76.6c-3.2,0-4.3,1.1-5,4-9.2,41-18.6,81.9-27.9,122.7q-17.8,78.3-35.6,156.4-4,18.1-8.1,36.6a11.2,11.2,0,0,0,2.3.6l89,.3c2.9,0,4-1.4,4.6-4,2.5-9.9,5.2-19.7,7.7-29.5q16.4-63.9,32.6-127.8c.4-1.6,1-3.1,1.9-6a14.2,14.2,0,0,1,.8,3c.7,30,1.5,59.9,2.1,89.9q.6,34.5.8,69c0,4.2,1.4,5.3,5.5,5.3,18-.2,36-.3,54,.2,6.2.1,9.3-1.8,12.2-7.4,23.4-46.5,47.3-92.9,71-139.2,3.4-6.7,7-13.4,10.4-20.1l1,.5q-18.4,82.4-37.1,165.2a37.7,37.7,0,0,0,4.1.5c28.7.1,57.4.1,86,.3,3.4,0,4.7-1.5,5.3-4.5,1.5-7.4,3.3-14.6,5-21.9L424.3,851l1.5-7.1-2.1-.4c-41.5,0-83-.1-124.4.1-1.9,0-4.5,1.9-5.5,3.7-3.7,6.7-6.8,13.7-10.2,20.6q-36.2,74-72.4,148.1c-.4.8-1.1,1.7-1.6,2.5l-1-.3c-2-58-3.9-116-5.9-174.5Zm476.4,171.4,85,.2c3,0,3.6-1.6,3.6-4.1,1-30.4-13.6-64.3-48.1-79.8-24.1-10.9-49.4-13.1-75.3-11-54.5,4.2-95.9,29.9-123.1,77.4-17.2,30.2-23.7,63-16.1,97.4,8,36.5,30.7,60.1,66.8,70.3,25.3,7.2,50.8,6.1,76.2.6,40.9-8.8,73.5-29.6,95-66.2,4.3-7.4,7.3-15.4,11.2-23.7l-3.4-.4c-28.3,0-56.6.1-85,0-3.2,0-4.9,1.1-6.4,4.2-4.9,10-11.6,18.7-21.2,24.7-13.4,8.4-38.3,8.8-45.7-15a66.5,66.5,0,0,1-3-23c1.1-20.3,7.4-39.2,17.8-56.7,7.4-12.4,16.7-23.3,29.9-30,19.7-9.9,37-.7,39.7,21,.5,4.2,0,8.6,0,13.4A8.5,8.5,0,0,0,675.9,1014.9Zm1640.9-17.2c-18.5,25.1-44.1,38.5-74.4,42.1-20.9,2.5-42.2,2.4-63.3,3.1-5,.1-6.6,1.3-6.6,6.4.1,36.3-.2,72.6-.1,109,.1,4.7-1.3,5.9-5.9,5.7-10.3-.3-20.6-.1-31.6-.1V844.2a25,25,0,0,1,3.8-.6c34.8.2,69.6-.4,104.4.8,25.7.9,49,9.5,67.7,28.1,14.1,14.1,21.2,31.7,23.5,51.2C2337.4,950.4,2333,975.6,2316.8,997.7Zm-22.6-57.6c.5-32.5-16.8-55.4-49-59.7-23.4-3.2-47.3-2.4-71.1-3.3a18,18,0,0,0-.8,3.1q-.3,61.9-.7,123.9c0,3.8,1.7,5,5.2,4.9,17.9-.7,35.9-.8,53.8-2.1a75,75,0,0,0,38.2-13.7C2288,980.1,2294,961.5,2294.2,940.1Zm1081.1,115.1c0,3.5-2.2,3.6-4.6,3.6H3217.2c-7,0-7,.1-6.3,7,1.8,16.5,5.7,32.3,16.1,45.6,15.4,20,36.9,26.3,60.9,26.2s45.8-7.9,65.7-21l3.3-2.2c.3-.2.7-.1,1.8-.3,0,10.2.3,20.2-.2,30.1-.1,2.1-2.8,4.8-5,6.1-22.2,13.3-46.7,18.1-72.2,18.6-19.7.3-38.8-2.7-56.5-12a89.6,89.6,0,0,1-43.5-49.7c-13.6-37.1-14.7-75,.5-111.8,26.3-63.6,91.8-79.9,143.3-56.6,23.3,10.5,36.4,30.3,44.2,54.1C3375.9,1013.2,3375.8,1034.2,3375.3,1055.2Zm-38.5-32c-1.1-16.2-4.2-31.9-14.9-44.8s-27.7-17.5-45.3-17.6c-36.5-.3-61.8,33.2-64.9,65.6,3.1.2,5.9.5,8.7.5h92c6.9-.1,14-.1,20.9-.5C3334.6,1026.4,3336.9,1024.2,3336.8,1023.2ZM2552.3,1077c.1,27-.3,54-.2,81,0,4.9-1.6,6.2-6.4,6-9-.4-18-.3-27-.1-3.3.1-4.4-1.1-4.3-4.3.2-8.3.1-16.7.1-25,0-1.6-.1-3.2-.2-5.1-6.9,7.4-12.6,14.6-19.4,20.5-20.5,17.9-44.8,21.5-70.8,17.3-20.3-3.2-36.8-12.4-47.8-30.2-9.2-15-10.5-31.4-8-48.3,4.4-29.7,22.8-47.5,50.5-54.9,19.4-5.3,39.6-7.3,59.5-10.6,10.6-1.8,21.4-3,32.1-4.8,1.5-.3,4-2.5,4-3.6-.8-12.9-2.2-25.6-9.8-36.7s-17.6-16-30.2-17c-29.2-2.3-55.4,5.5-78.8,23a29,29,0,0,1-2.9,1.9,7.5,7.5,0,0,1-2,.9,5.6,5.6,0,0,1-.7-1.9c0-10.3-.1-20.7.2-31,.1-1.9,1.6-4.7,3.2-5.5,32.2-16.2,66-24.3,102-17q51.4,10.5,55.7,67C2553,1024.6,2552.2,1050.8,2552.3,1077Zm-38.3-28.7a11.3,11.3,0,0,0-2.2-.2c-20.1,2.8-40.3,5.3-60.3,8.5-11.4,1.8-22.8,4.2-32.3,11.2-12.1,9.1-14.5,22.3-12.8,36.3s9.9,24.5,23.4,29.9c22.4,8.9,51.1,1.7,68-17.1S2515.1,1072.9,2514,1048.3ZM379.8,1162.5l75.4.9c8.2.1,8.2.1,10.3-7.8l.3-1.5,42.9-188.9c2.9-13,5.7-25.9,8.8-39.6H433.7c-3,0-4.9.2-5.3,4s-2.1,9.5-3.2,14.2l-42.9,186.9c-2.4,10.3-4.6,20.7-7,31.4C377.2,1162.3,378.5,1162.5,379.8,1162.5Zm2587-5.7c0-24.7,0-49.3.1-74,.1-19.7-.2-39.3.8-59,1.4-28.7,24.9-66.1,68.1-63,20.9,1.4,36.3,11.5,43.9,31.2,4.4,11.7,6.1,23.9,6.2,36.3.4,42,.5,84,.7,126v9.2l6,.3h24.5c6.5.1,6.6.1,6.6-6.5q.2-63.7.2-127.5c0-9.3,0-18.8-1.5-27.9a145.5,145.5,0,0,0-7.9-29.8c-9.9-25.2-29.2-39.1-56-42.2-36.9-4.3-67.4,6.5-88.2,39-.5.8-1.5,1.3-3.4,3V935.4h-38v13q.2,101,.2,202c0,13.3-.1,13.3,13.2,13.4h24.1C2966.6,1161,2966.8,1158.9,2966.8,1156.8ZM2790.2,878.1c-1.1.3-2.1,2.3-2.2,3.6-.2,6.2-.2,12.3-.2,18.5v34.6H2748v30.8l5.7.3c9.7,0,19.3.3,29,0,4.2-.1,5.7,1.4,5.3,5.5a26.7,26.7,0,0,0,0,4c-.1,41.1-.3,82.3-.2,123.4a135,135,0,0,0,2.1,23.8c2.8,16.5,10.2,30.7,25.8,38.3,21.2,10.4,43.1,10,64.9,1.7,1.3-.4,3-1.9,3-2.9.2-9.5.2-19.1.2-28.3-6.6,1.9-12.6,4.6-18.9,5.3-21,2.1-32.5-4.9-36.9-21.5a58.7,58.7,0,0,1-2-14.3c-.3-43.5-.3-87-.5-130.5-.1-3.4.9-4.5,4.5-4.5,16.1.2,32.3.1,48.5,0l5.2-.2V934.9h-4.9c-15.7.1-31.3,0-47,.2-4.5.1-6.8-1.2-6.3-6.2a100.7,100.7,0,0,0,.1-11c.1-16.8.1-33.6.1-50.7C2813.7,870.8,2801.9,874.3,2790.2,878.1Zm-50.8,57.4a3.4,3.4,0,0,0-2.2-2.7c-14.1-2.2-28.3-3.7-41.8,2.2-16.7,7.3-28.1,19.8-35.2,36.5a60,60,0,0,1-3,6.3l-1.5-.4V935.3h-37.4v227.8a8.2,8.2,0,0,0,2.1.7h27.5c7.6,0,7.6,0,7.6-7.5.1-38.5.1-77,.3-115.5.1-19.5,4.4-38.1,15.8-54.2s27.6-25.3,48.5-21.8c6.3,1.1,12.5,3.7,19.4,5.8C2739.5,959.3,2739.5,947.4,2739.4,935.5ZM3547,937c0-1.5-2-4.1-3.3-4.2-9.6-.6-19.4-2.3-28.7-.9-22.5,3.7-37.4,17.8-46.5,38.3-1.1,2.5-2.1,5.1-3.1,7.6l-1.9-.2V935.2h-38.1v50.2q0,85.8.1,171.5c.1,6.9.1,6.9,6.8,6.9h23.5c7.3,0,7.3.1,7.3-7.3.1-38.5.1-77,.4-115.5.1-17,3.6-33.4,12-48.5,10-17.9,27.9-32.5,54.2-27.2,5.8,1.1,11.5,3,17.5,4.7C3547.2,959,3547.3,948,3547,937ZM439.2,895.4c27.2.2,54.3.3,81.4.6,3.2.1,4-1.5,4.6-4,2.8-12.7,5.7-25.3,8.5-38,.8-3.3,1.4-6.7,2.1-10.2a17.6,17.6,0,0,0-2.5-.4H451.4c-2.8,0-3.9,1-4.4,3.5-.8,4.2-1.9,8.4-2.9,12.7-2.5,11.6-5.1,23.3-7.7,35.4Zm1631.7,54.5c-.1,14-12.6,26-27.1,25.8s-27-12-27-26,12.1-26.5,27.4-26.3S2071.1,935,2070.9,949.9Zm-4.5-1.3c.1-11.7-9.5-21.3-21.6-21.5s-22.9,9.6-23,21.4,8.8,22.8,21,22.9C2056.5,971.6,2066.2,962.2,2066.4,948.6Zm-13.2-.5c-1.6,1.2-3.2,2.2-5.2,3.5,1.6,2.4,3.1,4,3.6,5.8s-.4,3.2-.6,4.8a19.6,19.6,0,0,1-3.7-2.4c-.8-.8-.8-2.3-1.5-3.1s-3.5-3.6-5.3-5.3a49,49,0,0,0-3.8,6.2,18.2,18.2,0,0,0-1.1,4.6l-1.8.3c-.5-1.7-1.7-3.5-1.5-5.1,1-5.9,2.2-11.8,3.7-17.6,1.1-4.3,4.5-5.8,8.8-5.8s8.9.5,10.9,5.3S2056.2,945.8,2053.2,948.1Zm-1.4-6.3c0-3.3-2.5-3.9-5.2-3.9s-7.2,3-6.5,6c.3,1.4,2.1,2.5,3.1,3.5C2047.2,945.9,2051.8,947.1,2051.8,941.8Z"/></svg>