<svg width="5" height="6" viewBox="0 0 5 6" fill="none" xmlns="http://www.w3.org/2000/svg">
<path d="M2.23863 0.931352C2.33678 0.584611 2.82825 0.584612 2.9264 0.931352L3.2339 2.01766C3.2677 2.13707 3.36103 2.2304 3.48044 2.2642L4.56674 2.5717C4.91349 2.66985 4.91348 3.16132 4.56674 3.25947L3.48044 3.56697C3.36103 3.60077 3.2677 3.6941 3.2339 3.81351L2.9264 4.89981C2.82825 5.24655 2.33678 5.24655 2.23863 4.89981L1.93113 3.81351C1.89733 3.6941 1.804 3.60077 1.68459 3.56697L0.598283 3.25947C0.251542 3.16132 0.251543 2.66985 0.598284 2.5717L1.68459 2.2642C1.804 2.2304 1.89733 2.13707 1.93113 2.01766L2.23863 0.931352Z" fill="#B9FD50"/>
</svg>
